<svg width="259" height="86" viewBox="0 0 259 86" fill="none" xmlns="http://www.w3.org/2000/svg">
<path d="M110.225 19.625V23.075H115.7V24.2H110.225V27.875H117.2V29H108.05V18.5H117.2V19.625H110.225ZM124.099 28.25C124.589 28.25 125.029 28.185 125.419 28.055C125.819 27.915 126.159 27.705 126.439 27.425C126.719 27.135 126.934 26.77 127.084 26.33C127.244 25.88 127.324 25.345 127.324 24.725V18.5H129.499V24.725C129.499 26.265 129.029 27.415 128.089 28.175C127.149 28.925 125.819 29.3 124.099 29.3C122.369 29.3 121.034 28.925 120.094 28.175C119.164 27.415 118.699 26.265 118.699 24.725V18.5H120.874V24.725C120.874 25.345 120.949 25.88 121.099 26.33C121.259 26.77 121.479 27.135 121.759 27.425C122.039 27.705 122.374 27.915 122.764 28.055C123.164 28.185 123.609 28.25 124.099 28.25ZM137.005 18.5C137.755 18.5 138.425 18.585 139.015 18.755C139.615 18.915 140.12 19.155 140.53 19.475C140.94 19.785 141.255 20.17 141.475 20.63C141.695 21.08 141.805 21.595 141.805 22.175C141.805 22.975 141.605 23.65 141.205 24.2C140.805 24.75 140.23 25.17 139.48 25.46L141.955 29H139.48L137.275 25.85H137.005H133.78V29H131.605V18.5H137.005ZM133.78 19.625V24.725H137.005C137.795 24.725 138.405 24.52 138.835 24.11C139.265 23.69 139.48 23.045 139.48 22.175C139.48 21.305 139.265 20.665 138.835 20.255C138.405 19.835 137.795 19.625 137.005 19.625H133.78ZM149.302 19.25C148.792 19.25 148.312 19.34 147.862 19.52C147.422 19.7 147.037 19.975 146.707 20.345C146.377 20.715 146.112 21.185 145.912 21.755C145.722 22.315 145.627 22.98 145.627 23.75C145.627 24.52 145.722 25.19 145.912 25.76C146.112 26.32 146.377 26.785 146.707 27.155C147.037 27.525 147.422 27.8 147.862 27.98C148.312 28.16 148.792 28.25 149.302 28.25C149.812 28.25 150.287 28.16 150.727 27.98C151.177 27.8 151.567 27.525 151.897 27.155C152.227 26.785 152.487 26.32 152.677 25.76C152.877 25.19 152.977 24.52 152.977 23.75C152.977 22.98 152.877 22.315 152.677 21.755C152.487 21.185 152.227 20.715 151.897 20.345C151.567 19.975 151.177 19.7 150.727 19.52C150.287 19.34 149.812 19.25 149.302 19.25ZM149.302 18.2C150.202 18.2 151.017 18.32 151.747 18.56C152.487 18.8 153.117 19.155 153.637 19.625C154.167 20.095 154.577 20.675 154.867 21.365C155.157 22.055 155.302 22.85 155.302 23.75C155.302 24.65 155.157 25.445 154.867 26.135C154.577 26.825 154.167 27.405 153.637 27.875C153.117 28.345 152.487 28.7 151.747 28.94C151.017 29.18 150.202 29.3 149.302 29.3C148.402 29.3 147.582 29.18 146.842 28.94C146.102 28.7 145.467 28.345 144.937 27.875C144.417 27.405 144.012 26.825 143.722 26.135C143.442 25.445 143.302 24.65 143.302 23.75C143.302 22.85 143.442 22.055 143.722 21.365C144.012 20.675 144.417 20.095 144.937 19.625C145.467 19.155 146.102 18.8 146.842 18.56C147.582 18.32 148.402 18.2 149.302 18.2ZM162.508 18.5C163.258 18.5 163.928 18.585 164.518 18.755C165.118 18.915 165.623 19.155 166.033 19.475C166.443 19.785 166.758 20.17 166.978 20.63C167.198 21.08 167.308 21.595 167.308 22.175C167.308 22.755 167.198 23.275 166.978 23.735C166.758 24.185 166.443 24.57 166.033 24.89C165.623 25.2 165.118 25.44 164.518 25.61C163.928 25.77 163.258 25.85 162.508 25.85H159.283V29H157.108V18.5H162.508ZM159.283 19.625V24.725H162.508C163.298 24.725 163.908 24.52 164.338 24.11C164.778 23.69 164.998 23.045 164.998 22.175C164.998 21.305 164.778 20.665 164.338 20.255C163.908 19.835 163.298 19.625 162.508 19.625H159.283ZM171.133 19.625V23.075H176.608V24.2H171.133V27.875H178.108V29H168.958V18.5H178.108V19.625H171.133ZM182.383 25.325H187.033L184.783 19.775H184.633L182.383 25.325ZM186.433 18.5L190.708 29H188.548L187.558 26.45H181.858L180.868 29H178.708L182.983 18.5H186.433ZM202.712 18.5V29H199.862L194.237 20.45H194.087V29H191.912V18.5H194.762L200.387 27.05H200.537V18.5H202.712ZM113.45 37.5C114.2 37.5 114.87 37.585 115.46 37.755C116.06 37.915 116.565 38.155 116.975 38.475C117.385 38.785 117.7 39.17 117.92 39.63C118.14 40.08 118.25 40.595 118.25 41.175C118.25 41.755 118.14 42.275 117.92 42.735C117.7 43.185 117.385 43.57 116.975 43.89C116.565 44.2 116.06 44.44 115.46 44.61C114.87 44.77 114.2 44.85 113.45 44.85H110.225V48H108.05V37.5H113.45ZM110.225 38.625V43.725H113.45C114.24 43.725 114.85 43.52 115.28 43.11C115.72 42.69 115.94 42.045 115.94 41.175C115.94 40.305 115.72 39.665 115.28 39.255C114.85 38.835 114.24 38.625 113.45 38.625H110.225ZM129.651 45.225C129.651 45.655 129.561 46.06 129.381 46.44C129.201 46.81 128.906 47.135 128.496 47.415C128.096 47.685 127.571 47.9 126.921 48.06C126.281 48.22 125.491 48.3 124.551 48.3C124.021 48.3 123.501 48.26 122.991 48.18C122.491 48.1 122.011 47.985 121.551 47.835C121.101 47.685 120.681 47.505 120.291 47.295C119.911 47.075 119.581 46.835 119.301 46.575L120.051 45.675C120.621 46.165 121.286 46.54 122.046 46.8C122.806 47.05 123.641 47.175 124.551 47.175C125.561 47.175 126.276 47.035 126.696 46.755C127.116 46.475 127.326 46.09 127.326 45.6C127.326 45.22 127.161 44.9 126.831 44.64C126.501 44.38 125.941 44.125 125.151 43.875L122.301 42.975C121.361 42.675 120.651 42.295 120.171 41.835C119.691 41.365 119.451 40.77 119.451 40.05C119.451 39.68 119.536 39.325 119.706 38.985C119.886 38.635 120.161 38.33 120.531 38.07C120.901 37.8 121.371 37.59 121.941 37.44C122.521 37.28 123.216 37.2 124.026 37.2C124.516 37.2 125.001 37.24 125.481 37.32C125.971 37.4 126.436 37.515 126.876 37.665C127.326 37.815 127.741 38 128.121 38.22C128.511 38.43 128.846 38.665 129.126 38.925L128.376 39.825C127.806 39.335 127.166 38.965 126.456 38.715C125.746 38.455 124.936 38.325 124.026 38.325C123.276 38.325 122.711 38.455 122.331 38.715C121.961 38.975 121.776 39.295 121.776 39.675C121.776 39.885 121.811 40.07 121.881 40.23C121.951 40.38 122.066 40.525 122.226 40.665C122.396 40.795 122.616 40.92 122.886 41.04C123.156 41.15 123.491 41.27 123.891 41.4L126.726 42.3C127.636 42.59 128.351 42.97 128.871 43.44C129.391 43.91 129.651 44.505 129.651 45.225ZM136.696 44.85V48H134.521V44.85L129.646 37.5H132.046L135.571 42.825H135.646L139.171 37.5H141.571L136.696 44.85ZM147.873 47.175C148.553 47.175 149.203 47.06 149.823 46.83C150.453 46.59 151.053 46.205 151.623 45.675L152.373 46.575C151.803 47.105 151.113 47.525 150.303 47.835C149.493 48.145 148.633 48.3 147.723 48.3C146.783 48.3 145.933 48.18 145.173 47.94C144.423 47.7 143.778 47.345 143.238 46.875C142.708 46.405 142.298 45.825 142.008 45.135C141.718 44.445 141.573 43.65 141.573 42.75C141.573 41.85 141.713 41.055 141.993 40.365C142.283 39.675 142.688 39.095 143.208 38.625C143.738 38.155 144.373 37.8 145.113 37.56C145.853 37.32 146.673 37.2 147.573 37.2C148.483 37.2 149.343 37.355 150.153 37.665C150.963 37.975 151.653 38.395 152.223 38.925L151.473 39.825C150.903 39.295 150.303 38.915 149.673 38.685C149.053 38.445 148.403 38.325 147.723 38.325C147.183 38.325 146.678 38.415 146.208 38.595C145.738 38.765 145.333 39.03 144.993 39.39C144.653 39.75 144.383 40.21 144.183 40.77C143.993 41.32 143.898 41.98 143.898 42.75C143.898 43.52 143.993 44.185 144.183 44.745C144.383 45.295 144.658 45.75 145.008 46.11C145.368 46.47 145.788 46.74 146.268 46.92C146.758 47.09 147.293 47.175 147.873 47.175ZM164.224 37.5V48H162.049V43.425H155.899V48H153.724V37.5H155.899V42.3H162.049V37.5H164.224ZM172.021 38.25C171.511 38.25 171.031 38.34 170.581 38.52C170.141 38.7 169.756 38.975 169.426 39.345C169.096 39.715 168.831 40.185 168.631 40.755C168.441 41.315 168.346 41.98 168.346 42.75C168.346 43.52 168.441 44.19 168.631 44.76C168.831 45.32 169.096 45.785 169.426 46.155C169.756 46.525 170.141 46.8 170.581 46.98C171.031 47.16 171.511 47.25 172.021 47.25C172.531 47.25 173.006 47.16 173.446 46.98C173.896 46.8 174.286 46.525 174.616 46.155C174.946 45.785 175.206 45.32 175.396 44.76C175.596 44.19 175.696 43.52 175.696 42.75C175.696 41.98 175.596 41.315 175.396 40.755C175.206 40.185 174.946 39.715 174.616 39.345C174.286 38.975 173.896 38.7 173.446 38.52C173.006 38.34 172.531 38.25 172.021 38.25ZM172.021 37.2C172.921 37.2 173.736 37.32 174.466 37.56C175.206 37.8 175.836 38.155 176.356 38.625C176.886 39.095 177.296 39.675 177.586 40.365C177.876 41.055 178.021 41.85 178.021 42.75C178.021 43.65 177.876 44.445 177.586 45.135C177.296 45.825 176.886 46.405 176.356 46.875C175.836 47.345 175.206 47.7 174.466 47.94C173.736 48.18 172.921 48.3 172.021 48.3C171.121 48.3 170.301 48.18 169.561 47.94C168.821 47.7 168.186 47.345 167.656 46.875C167.136 46.405 166.731 45.825 166.441 45.135C166.161 44.445 166.021 43.65 166.021 42.75C166.021 41.85 166.161 41.055 166.441 40.365C166.731 39.675 167.136 39.095 167.656 38.625C168.186 38.155 168.821 37.8 169.561 37.56C170.301 37.32 171.121 37.2 172.021 37.2ZM188.452 46.875V48H179.827V37.5H182.002V46.875H188.452ZM194.448 38.25C193.938 38.25 193.458 38.34 193.008 38.52C192.568 38.7 192.183 38.975 191.853 39.345C191.523 39.715 191.258 40.185 191.058 40.755C190.868 41.315 190.773 41.98 190.773 42.75C190.773 43.52 190.868 44.19 191.058 44.76C191.258 45.32 191.523 45.785 191.853 46.155C192.183 46.525 192.568 46.8 193.008 46.98C193.458 47.16 193.938 47.25 194.448 47.25C194.958 47.25 195.433 47.16 195.873 46.98C196.323 46.8 196.713 46.525 197.043 46.155C197.373 45.785 197.633 45.32 197.823 44.76C198.023 44.19 198.123 43.52 198.123 42.75C198.123 41.98 198.023 41.315 197.823 40.755C197.633 40.185 197.373 39.715 197.043 39.345C196.713 38.975 196.323 38.7 195.873 38.52C195.433 38.34 194.958 38.25 194.448 38.25ZM194.448 37.2C195.348 37.2 196.163 37.32 196.893 37.56C197.633 37.8 198.263 38.155 198.783 38.625C199.313 39.095 199.723 39.675 200.013 40.365C200.303 41.055 200.448 41.85 200.448 42.75C200.448 43.65 200.303 44.445 200.013 45.135C199.723 45.825 199.313 46.405 198.783 46.875C198.263 47.345 197.633 47.7 196.893 47.94C196.163 48.18 195.348 48.3 194.448 48.3C193.548 48.3 192.728 48.18 191.988 47.94C191.248 47.7 190.613 47.345 190.083 46.875C189.563 46.405 189.158 45.825 188.868 45.135C188.588 44.445 188.448 43.65 188.448 42.75C188.448 41.85 188.588 41.055 188.868 40.365C189.158 39.675 189.563 39.095 190.083 38.625C190.613 38.155 191.248 37.8 191.988 37.56C192.728 37.32 193.548 37.2 194.448 37.2ZM207.654 37.2C208.564 37.2 209.424 37.355 210.234 37.665C211.044 37.975 211.734 38.395 212.304 38.925L211.554 39.825C210.984 39.295 210.384 38.915 209.754 38.685C209.134 38.445 208.484 38.325 207.804 38.325C207.294 38.325 206.824 38.415 206.394 38.595C205.964 38.765 205.589 39.03 205.269 39.39C204.959 39.75 204.714 40.21 204.534 40.77C204.364 41.32 204.279 41.98 204.279 42.75C204.279 43.54 204.369 44.22 204.549 44.79C204.729 45.35 204.979 45.815 205.299 46.185C205.619 46.545 206.004 46.815 206.454 46.995C206.914 47.165 207.414 47.25 207.954 47.25C208.404 47.25 208.789 47.21 209.109 47.13C209.439 47.05 209.714 46.955 209.934 46.845C210.194 46.725 210.409 46.585 210.579 46.425V43.575H208.629V42.6H212.754V46.725C212.384 47.025 211.954 47.29 211.464 47.52C211.044 47.72 210.524 47.9 209.904 48.06C209.294 48.22 208.594 48.3 207.804 48.3C206.904 48.3 206.094 48.18 205.374 47.94C204.654 47.7 204.039 47.345 203.529 46.875C203.019 46.405 202.629 45.825 202.359 45.135C202.089 44.445 201.954 43.65 201.954 42.75C201.954 41.85 202.089 41.055 202.359 40.365C202.629 39.675 203.009 39.095 203.499 38.625C203.999 38.155 204.599 37.8 205.299 37.56C206.009 37.32 206.794 37.2 207.654 37.2ZM216.734 48H214.559V37.5H216.734V48ZM224.836 47.175C225.516 47.175 226.166 47.06 226.786 46.83C227.416 46.59 228.016 46.205 228.586 45.675L229.336 46.575C228.766 47.105 228.076 47.525 227.266 47.835C226.456 48.145 225.596 48.3 224.686 48.3C223.746 48.3 222.896 48.18 222.136 47.94C221.386 47.7 220.741 47.345 220.201 46.875C219.671 46.405 219.261 45.825 218.971 45.135C218.681 44.445 218.536 43.65 218.536 42.75C218.536 41.85 218.676 41.055 218.956 40.365C219.246 39.675 219.651 39.095 220.171 38.625C220.701 38.155 221.336 37.8 222.076 37.56C222.816 37.32 223.636 37.2 224.536 37.2C225.446 37.2 226.306 37.355 227.116 37.665C227.926 37.975 228.616 38.395 229.186 38.925L228.436 39.825C227.866 39.295 227.266 38.915 226.636 38.685C226.016 38.445 225.366 38.325 224.686 38.325C224.146 38.325 223.641 38.415 223.171 38.595C222.701 38.765 222.296 39.03 221.956 39.39C221.616 39.75 221.346 40.21 221.146 40.77C220.956 41.32 220.861 41.98 220.861 42.75C220.861 43.52 220.956 44.185 221.146 44.745C221.346 45.295 221.621 45.75 221.971 46.11C222.331 46.47 222.751 46.74 223.231 46.92C223.721 47.09 224.256 47.175 224.836 47.175ZM233.462 44.325H238.112L235.862 38.775H235.712L233.462 44.325ZM237.512 37.5L241.787 48H239.627L238.637 45.45H232.937L231.947 48H229.787L234.062 37.5H237.512ZM251.616 46.875V48H242.991V37.5H245.166V46.875H251.616ZM110.825 63.325H115.475L113.225 57.775H113.075L110.825 63.325ZM114.875 56.5L119.15 67H116.99L116 64.45H110.3L109.31 67H107.15L111.425 56.5H114.875ZM130.105 64.225C130.105 64.655 130.015 65.06 129.835 65.44C129.655 65.81 129.36 66.135 128.95 66.415C128.55 66.685 128.025 66.9 127.375 67.06C126.735 67.22 125.945 67.3 125.005 67.3C124.475 67.3 123.955 67.26 123.445 67.18C122.945 67.1 122.465 66.985 122.005 66.835C121.555 66.685 121.135 66.505 120.745 66.295C120.365 66.075 120.035 65.835 119.755 65.575L120.505 64.675C121.075 65.165 121.74 65.54 122.5 65.8C123.26 66.05 124.095 66.175 125.005 66.175C126.015 66.175 126.73 66.035 127.15 65.755C127.57 65.475 127.78 65.09 127.78 64.6C127.78 64.22 127.615 63.9 127.285 63.64C126.955 63.38 126.395 63.125 125.605 62.875L122.755 61.975C121.815 61.675 121.105 61.295 120.625 60.835C120.145 60.365 119.905 59.77 119.905 59.05C119.905 58.68 119.99 58.325 120.16 57.985C120.34 57.635 120.615 57.33 120.985 57.07C121.355 56.8 121.825 56.59 122.395 56.44C122.975 56.28 123.67 56.2 124.48 56.2C124.97 56.2 125.455 56.24 125.935 56.32C126.425 56.4 126.89 56.515 127.33 56.665C127.78 56.815 128.195 57 128.575 57.22C128.965 57.43 129.3 57.665 129.58 57.925L128.83 58.825C128.26 58.335 127.62 57.965 126.91 57.715C126.2 57.455 125.39 57.325 124.48 57.325C123.73 57.325 123.165 57.455 122.785 57.715C122.415 57.975 122.23 58.295 122.23 58.675C122.23 58.885 122.265 59.07 122.335 59.23C122.405 59.38 122.52 59.525 122.68 59.665C122.85 59.795 123.07 59.92 123.34 60.04C123.61 60.15 123.945 60.27 124.345 60.4L127.18 61.3C128.09 61.59 128.805 61.97 129.325 62.44C129.845 62.91 130.105 63.505 130.105 64.225ZM141.355 64.225C141.355 64.655 141.265 65.06 141.085 65.44C140.905 65.81 140.61 66.135 140.2 66.415C139.8 66.685 139.275 66.9 138.625 67.06C137.985 67.22 137.195 67.3 136.255 67.3C135.725 67.3 135.205 67.26 134.695 67.18C134.195 67.1 133.715 66.985 133.255 66.835C132.805 66.685 132.385 66.505 131.995 66.295C131.615 66.075 131.285 65.835 131.005 65.575L131.755 64.675C132.325 65.165 132.99 65.54 133.75 65.8C134.51 66.05 135.345 66.175 136.255 66.175C137.265 66.175 137.98 66.035 138.4 65.755C138.82 65.475 139.03 65.09 139.03 64.6C139.03 64.22 138.865 63.9 138.535 63.64C138.205 63.38 137.645 63.125 136.855 62.875L134.005 61.975C133.065 61.675 132.355 61.295 131.875 60.835C131.395 60.365 131.155 59.77 131.155 59.05C131.155 58.68 131.24 58.325 131.41 57.985C131.59 57.635 131.865 57.33 132.235 57.07C132.605 56.8 133.075 56.59 133.645 56.44C134.225 56.28 134.92 56.2 135.73 56.2C136.22 56.2 136.705 56.24 137.185 56.32C137.675 56.4 138.14 56.515 138.58 56.665C139.03 56.815 139.445 57 139.825 57.22C140.215 57.43 140.55 57.665 140.83 57.925L140.08 58.825C139.51 58.335 138.87 57.965 138.16 57.715C137.45 57.455 136.64 57.325 135.73 57.325C134.98 57.325 134.415 57.455 134.035 57.715C133.665 57.975 133.48 58.295 133.48 58.675C133.48 58.885 133.515 59.07 133.585 59.23C133.655 59.38 133.77 59.525 133.93 59.665C134.1 59.795 134.32 59.92 134.59 60.04C134.86 60.15 135.195 60.27 135.595 60.4L138.43 61.3C139.34 61.59 140.055 61.97 140.575 62.44C141.095 62.91 141.355 63.505 141.355 64.225ZM148.555 57.25C148.045 57.25 147.565 57.34 147.115 57.52C146.675 57.7 146.29 57.975 145.96 58.345C145.63 58.715 145.365 59.185 145.165 59.755C144.975 60.315 144.88 60.98 144.88 61.75C144.88 62.52 144.975 63.19 145.165 63.76C145.365 64.32 145.63 64.785 145.96 65.155C146.29 65.525 146.675 65.8 147.115 65.98C147.565 66.16 148.045 66.25 148.555 66.25C149.065 66.25 149.54 66.16 149.98 65.98C150.43 65.8 150.82 65.525 151.15 65.155C151.48 64.785 151.74 64.32 151.93 63.76C152.13 63.19 152.23 62.52 152.23 61.75C152.23 60.98 152.13 60.315 151.93 59.755C151.74 59.185 151.48 58.715 151.15 58.345C150.82 57.975 150.43 57.7 149.98 57.52C149.54 57.34 149.065 57.25 148.555 57.25ZM148.555 56.2C149.455 56.2 150.27 56.32 151 56.56C151.74 56.8 152.37 57.155 152.89 57.625C153.42 58.095 153.83 58.675 154.12 59.365C154.41 60.055 154.555 60.85 154.555 61.75C154.555 62.65 154.41 63.445 154.12 64.135C153.83 64.825 153.42 65.405 152.89 65.875C152.37 66.345 151.74 66.7 151 66.94C150.27 67.18 149.455 67.3 148.555 67.3C147.655 67.3 146.835 67.18 146.095 66.94C145.355 66.7 144.72 66.345 144.19 65.875C143.67 65.405 143.265 64.825 142.975 64.135C142.695 63.445 142.555 62.65 142.555 61.75C142.555 60.85 142.695 60.055 142.975 59.365C143.265 58.675 143.67 58.095 144.19 57.625C144.72 57.155 145.355 56.8 146.095 56.56C146.835 56.32 147.655 56.2 148.555 56.2ZM162.361 66.175C163.041 66.175 163.691 66.06 164.311 65.83C164.941 65.59 165.541 65.205 166.111 64.675L166.861 65.575C166.291 66.105 165.601 66.525 164.791 66.835C163.981 67.145 163.121 67.3 162.211 67.3C161.271 67.3 160.421 67.18 159.661 66.94C158.911 66.7 158.266 66.345 157.726 65.875C157.196 65.405 156.786 64.825 156.496 64.135C156.206 63.445 156.061 62.65 156.061 61.75C156.061 60.85 156.201 60.055 156.481 59.365C156.771 58.675 157.176 58.095 157.696 57.625C158.226 57.155 158.861 56.8 159.601 56.56C160.341 56.32 161.161 56.2 162.061 56.2C162.971 56.2 163.831 56.355 164.641 56.665C165.451 56.975 166.141 57.395 166.711 57.925L165.961 58.825C165.391 58.295 164.791 57.915 164.161 57.685C163.541 57.445 162.891 57.325 162.211 57.325C161.671 57.325 161.166 57.415 160.696 57.595C160.226 57.765 159.821 58.03 159.481 58.39C159.141 58.75 158.871 59.21 158.671 59.77C158.481 60.32 158.386 60.98 158.386 61.75C158.386 62.52 158.481 63.185 158.671 63.745C158.871 64.295 159.146 64.75 159.496 65.11C159.856 65.47 160.276 65.74 160.756 65.92C161.246 66.09 161.781 66.175 162.361 66.175ZM170.386 67H168.211V56.5H170.386V67ZM175.263 63.325H179.913L177.663 57.775H177.513L175.263 63.325ZM179.313 56.5L183.588 67H181.428L180.438 64.45H174.738L173.748 67H171.588L175.863 56.5H179.313ZM192.967 57.625H188.917V67H186.742V57.625H182.692V56.5H192.967V57.625ZM196.343 67H194.168V56.5H196.343V67ZM204.146 57.25C203.636 57.25 203.156 57.34 202.706 57.52C202.266 57.7 201.881 57.975 201.551 58.345C201.221 58.715 200.956 59.185 200.756 59.755C200.566 60.315 200.471 60.98 200.471 61.75C200.471 62.52 200.566 63.19 200.756 63.76C200.956 64.32 201.221 64.785 201.551 65.155C201.881 65.525 202.266 65.8 202.706 65.98C203.156 66.16 203.636 66.25 204.146 66.25C204.656 66.25 205.131 66.16 205.571 65.98C206.021 65.8 206.411 65.525 206.741 65.155C207.071 64.785 207.331 64.32 207.521 63.76C207.721 63.19 207.821 62.52 207.821 61.75C207.821 60.98 207.721 60.315 207.521 59.755C207.331 59.185 207.071 58.715 206.741 58.345C206.411 57.975 206.021 57.7 205.571 57.52C205.131 57.34 204.656 57.25 204.146 57.25ZM204.146 56.2C205.046 56.2 205.861 56.32 206.591 56.56C207.331 56.8 207.961 57.155 208.481 57.625C209.011 58.095 209.421 58.675 209.711 59.365C210.001 60.055 210.146 60.85 210.146 61.75C210.146 62.65 210.001 63.445 209.711 64.135C209.421 64.825 209.011 65.405 208.481 65.875C207.961 66.345 207.331 66.7 206.591 66.94C205.861 67.18 205.046 67.3 204.146 67.3C203.246 67.3 202.426 67.18 201.686 66.94C200.946 66.7 200.311 66.345 199.781 65.875C199.261 65.405 198.856 64.825 198.566 64.135C198.286 63.445 198.146 62.65 198.146 61.75C198.146 60.85 198.286 60.055 198.566 59.365C198.856 58.675 199.261 58.095 199.781 57.625C200.311 57.155 200.946 56.8 201.686 56.56C202.426 56.32 203.246 56.2 204.146 56.2ZM222.751 56.5V67H219.901L214.276 58.45H214.126V67H211.951V56.5H214.801L220.426 65.05H220.576V56.5H222.751Z" fill="white"/>
<path d="M43.2981 0L44.78 4.05292L49.0903 4.20735L45.6957 6.87046L46.8796 11.0182L43.2981 8.60975L39.7193 11.0182L40.9005 6.87046L37.5059 4.20735L41.8162 4.05292L43.2981 0Z" fill="#FED116"/>
<path d="M43.2981 74.9004L44.78 78.9506L49.0903 79.1077L45.6957 81.7681L46.8796 85.9186L43.2981 83.5101L39.7193 85.9186L40.9005 81.7681L37.5059 79.1077L41.8162 78.9506L43.2981 74.9004Z" fill="#FED116"/>
<path d="M62.1731 4.92871L63.655 8.97892L67.9653 9.13606L64.5707 11.7965L65.7546 15.9469L62.1731 13.5385L58.5942 15.9469L59.7755 11.7965L56.3809 9.13606L60.6911 8.97892L62.1731 4.92871Z" fill="#FED116"/>
<path d="M62.1731 69.6797L63.655 73.7326L67.9653 73.8897L64.5707 76.5501L65.7546 80.7006L62.1731 78.2922L58.5942 80.7006L59.7755 76.5501L56.3809 73.8897L60.6911 73.7326L62.1731 69.6797Z" fill="#FED116"/>
<path d="M25.2229 4.92871L26.7048 8.97892L31.0178 9.13606L27.6205 11.7965L28.8044 15.9469L25.2229 13.5385L21.6441 15.9469L22.828 11.7965L19.4307 9.13606L23.7437 8.97892L25.2229 4.92871Z" fill="#FED116"/>
<path d="M25.2229 69.6797L26.7048 73.7326L31.0178 73.8897L27.6205 76.5501L28.8044 80.7006L25.2229 78.2922L21.6441 80.7006L22.828 76.5501L19.4307 73.8897L23.7437 73.7326L25.2229 69.6797Z" fill="#FED116"/>
<path d="M11.5842 18.8018L13.0661 22.8547L17.3791 23.0118L13.9818 25.6722L15.1657 29.8227L11.5842 27.4142L8.00539 29.8227L9.18929 25.6722L5.79199 23.0118L10.1023 22.8547L11.5842 18.8018Z" fill="#FED116"/>
<path d="M11.5842 56.2051L13.0661 60.2553L17.3791 60.4124L13.9818 63.0728L15.1657 67.2233L11.5842 64.8148L8.00539 67.2233L9.18929 63.0728L5.79199 60.4124L10.1023 60.2553L11.5842 56.2051Z" fill="#FED116"/>
<path d="M75.7268 18.8018L77.2087 22.8547L81.5217 23.0118L78.1244 25.6722L79.3083 29.8227L75.7268 27.4142L72.148 29.8227L73.3319 25.6722L69.9346 23.0118L74.2476 22.8547L75.7268 18.8018Z" fill="#FED116"/>
<path d="M75.7268 56.2051L77.2087 60.2553L81.5217 60.4124L78.1244 63.0728L79.3083 67.2233L75.7268 64.8148L72.148 67.2233L73.3319 63.0728L69.9346 60.4124L74.2476 60.2553L75.7268 56.2051Z" fill="#FED116"/>
<path d="M80.208 37.3564L81.6872 41.4094L86.0002 41.5665L82.6029 44.2269L83.7868 48.3774L80.208 45.9689L76.6265 48.3774L77.8104 44.2269L74.4131 41.5665L78.7261 41.4094L80.208 37.3564Z" fill="#FED116"/>
<path d="M5.79221 37.3564L7.27413 41.4094L11.5844 41.5665L8.18983 44.2269L9.37374 48.3774L5.79221 45.9689L2.2134 48.3774L3.39459 44.2269L0 41.5665L4.3103 41.4094L5.79221 37.3564Z" fill="#FED116"/>
<path d="M27.124 66.274C29.462 64.9113 31.1797 63.5296 32.3473 62.4811C41.7265 54.0556 45.3026 40.3797 42.1166 29.1854C41.6425 27.522 41.1034 26.2026 40.7322 25.3682C41.1088 25.7637 41.7807 26.506 42.4688 27.522C49.7456 38.2422 44.6659 58.1681 32.22 64.5076C30.2531 65.51 28.4298 66.0058 27.124 66.2713V66.274Z" fill="white"/>
<path d="M44.5879 50.1683C45.463 49.9353 46.9936 49.4178 48.378 48.177C54.6471 42.5582 48.5812 30.4997 54.3165 24.9702C55.4788 23.8486 57.6759 22.4697 62.0891 22.5076C61.0922 22.6918 59.1632 23.1957 57.5946 24.8023C56.2996 26.1271 55.7795 27.6632 55.4652 29.0177C53.7639 36.365 57.7762 40.0062 55.5004 44.842C53.8208 48.41 50.0685 49.7592 49.7814 49.8567C47.6005 50.6044 45.6445 50.3769 44.5879 50.1683Z" fill="white"/>
<path d="M40.6051 46.2424C35.5877 46.6136 33.4394 45.2699 32.3936 44.0507C28.5926 39.6131 34.0354 30.5238 29.866 26.7581C28.804 25.799 27.5009 25.5308 26.7314 25.4387C29.6872 25.1407 31.3154 25.8938 32.2636 26.6741C36.6958 30.3125 32.4532 39.5508 37.625 44.4381C38.6789 45.4324 39.814 45.958 40.6051 46.2452V46.2424Z" fill="white"/>
</svg>
