<svg width="235" height="86" viewBox="0 0 235 86" fill="none" xmlns="http://www.w3.org/2000/svg">
<path d="M103.017 28.175C103.697 28.175 104.347 28.06 104.967 27.83C105.597 27.59 106.197 27.205 106.767 26.675L107.517 27.575C106.947 28.105 106.257 28.525 105.447 28.835C104.637 29.145 103.777 29.3 102.867 29.3C101.927 29.3 101.077 29.18 100.317 28.94C99.5668 28.7 98.9218 28.345 98.3818 27.875C97.8518 27.405 97.4418 26.825 97.1518 26.135C96.8618 25.445 96.7168 24.65 96.7168 23.75C96.7168 22.85 96.8568 22.055 97.1368 21.365C97.4268 20.675 97.8318 20.095 98.3518 19.625C98.8818 19.155 99.5168 18.8 100.257 18.56C100.997 18.32 101.817 18.2 102.717 18.2C103.627 18.2 104.487 18.355 105.297 18.665C106.107 18.975 106.797 19.395 107.367 19.925L106.617 20.825C106.047 20.295 105.447 19.915 104.817 19.685C104.197 19.445 103.547 19.325 102.867 19.325C102.357 19.325 101.882 19.4 101.442 19.55C101.002 19.7 100.612 19.935 100.272 20.255C99.9418 20.565 99.6668 20.96 99.4468 21.44C99.2368 21.92 99.1068 22.49 99.0568 23.15H104.727V24.275H99.0568C99.0968 24.955 99.2218 25.54 99.4318 26.03C99.6518 26.52 99.9318 26.925 100.272 27.245C100.622 27.555 101.027 27.79 101.487 27.95C101.957 28.1 102.467 28.175 103.017 28.175ZM108.867 18.5H113.967C114.737 18.5 115.402 18.57 115.962 18.71C116.532 18.84 117.002 19.03 117.372 19.28C117.742 19.52 118.017 19.81 118.197 20.15C118.377 20.49 118.467 20.865 118.467 21.275C118.467 21.805 118.317 22.265 118.017 22.655C117.717 23.045 117.267 23.335 116.667 23.525C117.417 23.675 118.002 23.97 118.422 24.41C118.852 24.84 119.067 25.395 119.067 26.075C119.067 26.975 118.692 27.69 117.942 28.22C117.202 28.74 116.027 29 114.417 29H108.867V18.5ZM111.042 24.2V27.875H114.417C115.167 27.875 115.742 27.725 116.142 27.425C116.542 27.125 116.742 26.675 116.742 26.075C116.742 25.435 116.542 24.965 116.142 24.665C115.742 24.355 115.167 24.2 114.417 24.2H111.042ZM113.967 23.075C115.417 23.075 116.142 22.475 116.142 21.275C116.142 20.745 115.957 20.34 115.587 20.06C115.227 19.77 114.687 19.625 113.967 19.625H111.042V23.075H113.967ZM126.264 18.5C127.014 18.5 127.684 18.585 128.274 18.755C128.874 18.915 129.379 19.155 129.789 19.475C130.199 19.785 130.514 20.17 130.734 20.63C130.954 21.08 131.064 21.595 131.064 22.175C131.064 22.755 130.954 23.275 130.734 23.735C130.514 24.185 130.199 24.57 129.789 24.89C129.379 25.2 128.874 25.44 128.274 25.61C127.684 25.77 127.014 25.85 126.264 25.85H123.039V29H120.864V18.5H126.264ZM123.039 19.625V24.725H126.264C127.054 24.725 127.664 24.52 128.094 24.11C128.534 23.69 128.754 23.045 128.754 22.175C128.754 21.305 128.534 20.665 128.094 20.255C127.664 19.835 127.054 19.625 126.264 19.625H123.039ZM138.415 19.25C137.905 19.25 137.425 19.34 136.975 19.52C136.535 19.7 136.15 19.975 135.82 20.345C135.49 20.715 135.225 21.185 135.025 21.755C134.835 22.315 134.74 22.98 134.74 23.75C134.74 24.52 134.835 25.19 135.025 25.76C135.225 26.32 135.49 26.785 135.82 27.155C136.15 27.525 136.535 27.8 136.975 27.98C137.425 28.16 137.905 28.25 138.415 28.25C138.925 28.25 139.4 28.16 139.84 27.98C140.29 27.8 140.68 27.525 141.01 27.155C141.34 26.785 141.6 26.32 141.79 25.76C141.99 25.19 142.09 24.52 142.09 23.75C142.09 22.98 141.99 22.315 141.79 21.755C141.6 21.185 141.34 20.715 141.01 20.345C140.68 19.975 140.29 19.7 139.84 19.52C139.4 19.34 138.925 19.25 138.415 19.25ZM138.415 18.2C139.315 18.2 140.13 18.32 140.86 18.56C141.6 18.8 142.23 19.155 142.75 19.625C143.28 20.095 143.69 20.675 143.98 21.365C144.27 22.055 144.415 22.85 144.415 23.75C144.415 24.65 144.27 25.445 143.98 26.135C143.69 26.825 143.28 27.405 142.75 27.875C142.23 28.345 141.6 28.7 140.86 28.94C140.13 29.18 139.315 29.3 138.415 29.3C137.515 29.3 136.695 29.18 135.955 28.94C135.215 28.7 134.58 28.345 134.05 27.875C133.53 27.405 133.125 26.825 132.835 26.135C132.555 25.445 132.415 24.65 132.415 23.75C132.415 22.85 132.555 22.055 132.835 21.365C133.125 20.675 133.53 20.095 134.05 19.625C134.58 19.155 135.215 18.8 135.955 18.56C136.695 18.32 137.515 18.2 138.415 18.2ZM156.721 18.5V29H154.546V19.625H148.396V29H146.221V18.5H156.721ZM160.994 19.625V23.075H166.469V24.2H160.994V27.875H167.969V29H158.819V18.5H167.969V19.625H160.994ZM178.093 29V20.45H177.943L172.318 29H169.468V18.5H171.643V27.05H171.793L177.418 18.5H180.268V29H178.093ZM174.718 17.675C173.668 17.675 172.918 17.45 172.468 17C172.018 16.55 171.793 15.95 171.793 15.2H173.518C173.518 15.65 173.633 15.975 173.863 16.175C174.093 16.375 174.378 16.475 174.718 16.475C175.058 16.475 175.343 16.375 175.573 16.175C175.803 15.975 175.918 15.65 175.918 15.2H177.643C177.643 15.95 177.418 16.55 176.968 17C176.518 17.45 175.768 17.675 174.718 17.675ZM188.373 28.175C189.053 28.175 189.703 28.06 190.323 27.83C190.953 27.59 191.553 27.205 192.123 26.675L192.873 27.575C192.303 28.105 191.613 28.525 190.803 28.835C189.993 29.145 189.133 29.3 188.223 29.3C187.283 29.3 186.433 29.18 185.673 28.94C184.923 28.7 184.278 28.345 183.738 27.875C183.208 27.405 182.798 26.825 182.508 26.135C182.218 25.445 182.073 24.65 182.073 23.75C182.073 22.85 182.213 22.055 182.493 21.365C182.783 20.675 183.188 20.095 183.708 19.625C184.238 19.155 184.873 18.8 185.613 18.56C186.353 18.32 187.173 18.2 188.073 18.2C188.983 18.2 189.843 18.355 190.653 18.665C191.463 18.975 192.153 19.395 192.723 19.925L191.973 20.825C191.403 20.295 190.803 19.915 190.173 19.685C189.553 19.445 188.903 19.325 188.223 19.325C187.683 19.325 187.178 19.415 186.708 19.595C186.238 19.765 185.833 20.03 185.493 20.39C185.153 20.75 184.883 21.21 184.683 21.77C184.493 22.32 184.398 22.98 184.398 23.75C184.398 24.52 184.493 25.185 184.683 25.745C184.883 26.295 185.158 26.75 185.508 27.11C185.868 27.47 186.288 27.74 186.768 27.92C187.258 28.09 187.793 28.175 188.373 28.175ZM199.774 22.4C201.314 22.4 202.474 22.7 203.254 23.3C204.034 23.89 204.424 24.69 204.424 25.7C204.424 26.71 204.034 27.515 203.254 28.115C202.474 28.705 201.314 29 199.774 29H194.224V18.5H196.399V22.4H199.774ZM196.399 23.525V27.875H199.774C200.494 27.875 201.059 27.695 201.469 27.335C201.889 26.965 202.099 26.42 202.099 25.7C202.099 24.98 201.889 24.44 201.469 24.08C201.059 23.71 200.494 23.525 199.774 23.525H196.399ZM212.824 23.675L216.799 29H214.324L210.874 24.35H208.249V29H206.074V18.5H208.249V23.225H210.724L214.174 18.5H216.574L212.824 23.675ZM220.773 25.325H225.423L223.173 19.775H223.023L220.773 25.325ZM224.823 18.5L229.098 29H226.938L225.948 26.45H220.248L219.258 29H217.098L221.373 18.5H224.823ZM107.517 37.5V48H105.342V38.625H99.1918V48H97.0168V37.5H107.517ZM115.614 47.175C116.294 47.175 116.944 47.06 117.564 46.83C118.194 46.59 118.794 46.205 119.364 45.675L120.114 46.575C119.544 47.105 118.854 47.525 118.044 47.835C117.234 48.145 116.374 48.3 115.464 48.3C114.524 48.3 113.674 48.18 112.914 47.94C112.164 47.7 111.519 47.345 110.979 46.875C110.449 46.405 110.039 45.825 109.749 45.135C109.459 44.445 109.314 43.65 109.314 42.75C109.314 41.85 109.454 41.055 109.734 40.365C110.024 39.675 110.429 39.095 110.949 38.625C111.479 38.155 112.114 37.8 112.854 37.56C113.594 37.32 114.414 37.2 115.314 37.2C116.224 37.2 117.084 37.355 117.894 37.665C118.704 37.975 119.394 38.395 119.964 38.925L119.214 39.825C118.644 39.295 118.044 38.915 117.414 38.685C116.794 38.445 116.144 38.325 115.464 38.325C114.924 38.325 114.419 38.415 113.949 38.595C113.479 38.765 113.074 39.03 112.734 39.39C112.394 39.75 112.124 40.21 111.924 40.77C111.734 41.32 111.639 41.98 111.639 42.75C111.639 43.52 111.734 44.185 111.924 44.745C112.124 45.295 112.399 45.75 112.749 46.11C113.109 46.47 113.529 46.74 114.009 46.92C114.499 47.09 115.034 47.175 115.614 47.175ZM130.09 48V39.45H129.94L124.315 48H121.465V37.5H123.64V46.05H123.79L129.415 37.5H132.265V48H130.09ZM140.325 42.615L144.795 48H142.245L139.05 44.16L135.87 48H133.32L137.775 42.615L133.545 37.5H136.095L139.05 41.085L142.02 37.5H144.57L140.325 42.615ZM150.793 38.25C150.283 38.25 149.803 38.34 149.353 38.52C148.913 38.7 148.528 38.975 148.198 39.345C147.868 39.715 147.603 40.185 147.403 40.755C147.213 41.315 147.118 41.98 147.118 42.75C147.118 43.52 147.213 44.19 147.403 44.76C147.603 45.32 147.868 45.785 148.198 46.155C148.528 46.525 148.913 46.8 149.353 46.98C149.803 47.16 150.283 47.25 150.793 47.25C151.303 47.25 151.778 47.16 152.218 46.98C152.668 46.8 153.058 46.525 153.388 46.155C153.718 45.785 153.978 45.32 154.168 44.76C154.368 44.19 154.468 43.52 154.468 42.75C154.468 41.98 154.368 41.315 154.168 40.755C153.978 40.185 153.718 39.715 153.388 39.345C153.058 38.975 152.668 38.7 152.218 38.52C151.778 38.34 151.303 38.25 150.793 38.25ZM150.793 37.2C151.693 37.2 152.508 37.32 153.238 37.56C153.978 37.8 154.608 38.155 155.128 38.625C155.658 39.095 156.068 39.675 156.358 40.365C156.648 41.055 156.793 41.85 156.793 42.75C156.793 43.65 156.648 44.445 156.358 45.135C156.068 45.825 155.658 46.405 155.128 46.875C154.608 47.345 153.978 47.7 153.238 47.94C152.508 48.18 151.693 48.3 150.793 48.3C149.893 48.3 149.073 48.18 148.333 47.94C147.593 47.7 146.958 47.345 146.428 46.875C145.908 46.405 145.503 45.825 145.213 45.135C144.933 44.445 144.793 43.65 144.793 42.75C144.793 41.85 144.933 41.055 145.213 40.365C145.503 39.675 145.908 39.095 146.428 38.625C146.958 38.155 147.593 37.8 148.333 37.56C149.073 37.32 149.893 37.2 150.793 37.2ZM157.849 47.1H158.299C158.599 47.1 158.864 46.975 159.094 46.725C159.324 46.475 159.459 46.05 159.499 45.45L160.024 37.5H168.949V48H166.774V38.625H162.049L161.599 45.45C161.529 46.43 161.254 47.14 160.774 47.58C160.304 48.01 159.654 48.225 158.824 48.225C158.564 48.225 158.334 48.2 158.134 48.15C158.024 48.13 157.929 48.105 157.849 48.075V47.1ZM176.75 38.25C176.24 38.25 175.76 38.34 175.31 38.52C174.87 38.7 174.485 38.975 174.155 39.345C173.825 39.715 173.56 40.185 173.36 40.755C173.17 41.315 173.075 41.98 173.075 42.75C173.075 43.52 173.17 44.19 173.36 44.76C173.56 45.32 173.825 45.785 174.155 46.155C174.485 46.525 174.87 46.8 175.31 46.98C175.76 47.16 176.24 47.25 176.75 47.25C177.26 47.25 177.735 47.16 178.175 46.98C178.625 46.8 179.015 46.525 179.345 46.155C179.675 45.785 179.935 45.32 180.125 44.76C180.325 44.19 180.425 43.52 180.425 42.75C180.425 41.98 180.325 41.315 180.125 40.755C179.935 40.185 179.675 39.715 179.345 39.345C179.015 38.975 178.625 38.7 178.175 38.52C177.735 38.34 177.26 38.25 176.75 38.25ZM176.75 37.2C177.65 37.2 178.465 37.32 179.195 37.56C179.935 37.8 180.565 38.155 181.085 38.625C181.615 39.095 182.025 39.675 182.315 40.365C182.605 41.055 182.75 41.85 182.75 42.75C182.75 43.65 182.605 44.445 182.315 45.135C182.025 45.825 181.615 46.405 181.085 46.875C180.565 47.345 179.935 47.7 179.195 47.94C178.465 48.18 177.65 48.3 176.75 48.3C175.85 48.3 175.03 48.18 174.29 47.94C173.55 47.7 172.915 47.345 172.385 46.875C171.865 46.405 171.46 45.825 171.17 45.135C170.89 44.445 170.75 43.65 170.75 42.75C170.75 41.85 170.89 41.055 171.17 40.365C171.46 39.675 171.865 39.095 172.385 38.625C172.915 38.155 173.55 37.8 174.29 37.56C175.03 37.32 175.85 37.2 176.75 37.2ZM186.731 38.625V48H184.556V37.5H193.256V38.625H186.731ZM196.633 48H194.458V37.5H196.633V48ZM203.386 44.55C202.506 44.55 201.751 44.48 201.121 44.34C200.501 44.2 199.991 43.995 199.591 43.725C199.191 43.455 198.896 43.12 198.706 42.72C198.526 42.32 198.436 41.855 198.436 41.325V37.5H200.611V41.325C200.611 42.035 200.821 42.565 201.241 42.915C201.661 43.255 202.376 43.425 203.386 43.425H206.236V37.5H208.411V48H206.236V44.55H203.386ZM221.013 37.5V48H218.838V43.425H212.688V48H210.513V37.5H212.688V42.3H218.838V37.5H221.013ZM225.886 44.325H230.536L228.286 38.775H228.136L225.886 44.325ZM229.936 37.5L234.211 48H232.051L231.061 45.45H225.361L224.371 48H222.211L226.486 37.5H229.936ZM99.7918 63.325H104.442L102.192 57.775H102.042L99.7918 63.325ZM103.842 56.5L108.117 67H105.957L104.967 64.45H99.2668L98.2768 67H96.1168L100.392 56.5H103.842ZM114.574 66.175C115.254 66.175 115.904 66.06 116.524 65.83C117.154 65.59 117.754 65.205 118.324 64.675L119.074 65.575C118.504 66.105 117.814 66.525 117.004 66.835C116.194 67.145 115.334 67.3 114.424 67.3C113.484 67.3 112.634 67.18 111.874 66.94C111.124 66.7 110.479 66.345 109.939 65.875C109.409 65.405 108.999 64.825 108.709 64.135C108.419 63.445 108.274 62.65 108.274 61.75C108.274 60.85 108.414 60.055 108.694 59.365C108.984 58.675 109.389 58.095 109.909 57.625C110.439 57.155 111.074 56.8 111.814 56.56C112.554 56.32 113.374 56.2 114.274 56.2C115.184 56.2 116.044 56.355 116.854 56.665C117.664 56.975 118.354 57.395 118.924 57.925L118.174 58.825C117.604 58.295 117.004 57.915 116.374 57.685C115.754 57.445 115.104 57.325 114.424 57.325C113.884 57.325 113.379 57.415 112.909 57.595C112.439 57.765 112.034 58.03 111.694 58.39C111.354 58.75 111.084 59.21 110.884 59.77C110.694 60.32 110.599 60.98 110.599 61.75C110.599 62.52 110.694 63.185 110.884 63.745C111.084 64.295 111.359 64.75 111.709 65.11C112.069 65.47 112.489 65.74 112.969 65.92C113.459 66.09 113.994 66.175 114.574 66.175ZM125.671 57.25C125.161 57.25 124.681 57.34 124.231 57.52C123.791 57.7 123.406 57.975 123.076 58.345C122.746 58.715 122.481 59.185 122.281 59.755C122.091 60.315 121.996 60.98 121.996 61.75C121.996 62.52 122.091 63.19 122.281 63.76C122.481 64.32 122.746 64.785 123.076 65.155C123.406 65.525 123.791 65.8 124.231 65.98C124.681 66.16 125.161 66.25 125.671 66.25C126.181 66.25 126.656 66.16 127.096 65.98C127.546 65.8 127.936 65.525 128.266 65.155C128.596 64.785 128.856 64.32 129.046 63.76C129.246 63.19 129.346 62.52 129.346 61.75C129.346 60.98 129.246 60.315 129.046 59.755C128.856 59.185 128.596 58.715 128.266 58.345C127.936 57.975 127.546 57.7 127.096 57.52C126.656 57.34 126.181 57.25 125.671 57.25ZM125.671 56.2C126.571 56.2 127.386 56.32 128.116 56.56C128.856 56.8 129.486 57.155 130.006 57.625C130.536 58.095 130.946 58.675 131.236 59.365C131.526 60.055 131.671 60.85 131.671 61.75C131.671 62.65 131.526 63.445 131.236 64.135C130.946 64.825 130.536 65.405 130.006 65.875C129.486 66.345 128.856 66.7 128.116 66.94C127.386 67.18 126.571 67.3 125.671 67.3C124.771 67.3 123.951 67.18 123.211 66.94C122.471 66.7 121.836 66.345 121.306 65.875C120.786 65.405 120.381 64.825 120.091 64.135C119.811 63.445 119.671 62.65 119.671 61.75C119.671 60.85 119.811 60.055 120.091 59.365C120.381 58.675 120.786 58.095 121.306 57.625C121.836 57.155 122.471 56.8 123.211 56.56C123.951 56.32 124.771 56.2 125.671 56.2ZM144.952 65.875V69.4H143.152L142.852 67H133.477V56.5H135.652V65.875H141.502V56.5H143.677V65.875H144.952ZM148.777 67H146.602V56.5H148.777V67ZM153.654 63.325H158.304L156.054 57.775H155.904L153.654 63.325ZM157.704 56.5L161.979 67H159.819L158.829 64.45H153.129L152.139 67H149.979L154.254 56.5H157.704ZM174.659 65.875V69.4H172.859L172.559 67H163.184V56.5H165.359V65.875H171.209V56.5H173.384V65.875H174.659ZM178.484 67H176.309V56.5H178.484V67ZM180.136 67L182.611 63.46C181.861 63.17 181.286 62.75 180.886 62.2C180.486 61.65 180.286 60.975 180.286 60.175C180.286 59.595 180.396 59.08 180.616 58.63C180.836 58.17 181.151 57.785 181.561 57.475C181.971 57.155 182.471 56.915 183.061 56.755C183.661 56.585 184.336 56.5 185.086 56.5H190.486V67H188.311V63.85H185.086H184.816L182.611 67H180.136ZM185.086 57.625C184.296 57.625 183.686 57.835 183.256 58.255C182.826 58.665 182.611 59.305 182.611 60.175C182.611 61.045 182.826 61.69 183.256 62.11C183.686 62.52 184.296 62.725 185.086 62.725H188.311V57.625H185.086Z" fill="white"/>
<path d="M43.3579 0L44.8419 4.05292L49.1582 4.20735L45.7588 6.87046L46.9444 11.0182L43.3579 8.60975L39.7741 11.0182L40.9569 6.87046L37.5576 4.20735L41.8739 4.05292L43.3579 0Z" fill="#FED116"/>
<path d="M43.3579 74.9004L44.8419 78.9506L49.1582 79.1077L45.7588 81.7681L46.9444 85.9186L43.3579 83.5101L39.7741 85.9186L40.9569 81.7681L37.5576 79.1077L41.8739 78.9506L43.3579 74.9004Z" fill="#FED116"/>
<path d="M62.2592 4.92871L63.7432 8.97892L68.0595 9.13606L64.6602 11.7965L65.8458 15.9469L62.2592 13.5385L58.6755 15.9469L59.8583 11.7965L56.459 9.13606L60.7753 8.97892L62.2592 4.92871Z" fill="#FED116"/>
<path d="M62.2592 69.6797L63.7432 73.7326L68.0595 73.8897L64.6602 76.5501L65.8458 80.7006L62.2592 78.2922L58.6755 80.7006L59.8583 76.5501L56.459 73.8897L60.7753 73.7326L62.2592 69.6797Z" fill="#FED116"/>
<path d="M25.2573 4.92871L26.7413 8.97892L31.0603 9.13606L27.6583 11.7965L28.8438 15.9469L25.2573 13.5385L21.6735 15.9469L22.8591 11.7965L19.457 9.13606L23.776 8.97892L25.2573 4.92871Z" fill="#FED116"/>
<path d="M25.2573 69.6797L26.7413 73.7326L31.0603 73.8897L27.6583 76.5501L28.8438 80.7006L25.2573 78.2922L21.6735 80.7006L22.8591 76.5501L19.457 73.8897L23.776 73.7326L25.2573 69.6797Z" fill="#FED116"/>
<path d="M11.6001 18.8018L13.0841 22.8547L17.4031 23.0118L14.001 25.6722L15.1866 29.8227L11.6001 27.4142L8.01628 29.8227L9.20183 25.6722L5.7998 23.0118L10.1161 22.8547L11.6001 18.8018Z" fill="#FED116"/>
<path d="M11.6001 56.2051L13.0841 60.2553L17.4031 60.4124L14.001 63.0728L15.1866 67.2233L11.6001 64.8148L8.01628 67.2233L9.20183 63.0728L5.7998 60.4124L10.1161 60.2553L11.6001 56.2051Z" fill="#FED116"/>
<path d="M75.8325 18.8018L77.3165 22.8547L81.6355 23.0118L78.2334 25.6722L79.419 29.8227L75.8325 27.4142L72.2487 29.8227L73.4342 25.6722L70.0322 23.0118L74.3512 22.8547L75.8325 18.8018Z" fill="#FED116"/>
<path d="M75.8325 56.2051L77.3165 60.2553L81.6355 60.4124L78.2334 63.0728L79.419 67.2233L75.8325 64.8148L72.2487 67.2233L73.4342 63.0728L70.0322 60.4124L74.3512 60.2553L75.8325 56.2051Z" fill="#FED116"/>
<path d="M80.3196 37.3564L81.8008 41.4094L86.1198 41.5665L82.7178 44.2269L83.9034 48.3774L80.3196 45.9689L76.7331 48.3774L77.9186 44.2269L74.5166 41.5665L78.8356 41.4094L80.3196 37.3564Z" fill="#FED116"/>
<path d="M5.80027 37.3564L7.28425 41.4094L11.6005 41.5665L8.20122 44.2269L9.38678 48.3774L5.80027 45.9689L2.21647 48.3774L3.39931 44.2269L0 41.5665L4.31629 41.4094L5.80027 37.3564Z" fill="#FED116"/>
<path d="M27.1621 66.274C29.5034 64.9113 31.2234 63.5296 32.3927 62.4811C41.7849 54.0556 45.3659 40.3797 42.1755 29.1854C41.7008 27.522 41.1609 26.2026 40.7892 25.3682C41.1663 25.7637 41.8391 26.506 42.5282 27.522C49.8152 38.2422 44.7284 58.1681 32.2652 64.5076C30.2956 65.51 28.4697 66.0058 27.1621 66.2713V66.274Z" fill="white"/>
<path d="M44.6494 50.1683C45.5257 49.9353 47.0585 49.4178 48.4448 48.177C54.7226 42.5582 48.6483 30.4997 54.3916 24.9702C55.5554 23.8486 57.7556 22.4697 62.175 22.5076C61.1767 22.6918 59.245 23.1957 57.6742 24.8023C56.3775 26.1271 55.8566 27.6632 55.5419 29.0177C53.8382 36.365 57.856 40.0062 55.5771 44.842C53.8951 48.41 50.1377 49.7592 49.8501 49.8567C47.6662 50.6044 45.7075 50.3769 44.6494 50.1683Z" fill="white"/>
<path d="M40.6615 46.2424C35.6372 46.6136 33.4858 45.2699 32.4386 44.0507C28.6323 39.6131 34.0826 30.5238 29.9074 26.7581C28.844 25.799 27.539 25.5308 26.7686 25.4387C29.7284 25.1407 31.3589 25.8938 32.3084 26.6741C36.7468 30.3125 32.4983 39.5508 37.6773 44.4381C38.7326 45.4324 39.8694 45.958 40.6615 46.2452V46.2424Z" fill="white"/>
</svg>
