<svg width="139" height="159" viewBox="0 0 139 159" fill="none" xmlns="http://www.w3.org/2000/svg">
<path d="M9.40693 115.175C10.0869 115.175 10.7369 115.06 11.3569 114.83C11.9869 114.59 12.5869 114.205 13.1569 113.675L13.9069 114.575C13.3369 115.105 12.6469 115.525 11.8369 115.835C11.0269 116.145 10.1669 116.3 9.25693 116.3C8.31693 116.3 7.46693 116.18 6.70693 115.94C5.95693 115.7 5.31193 115.345 4.77193 114.875C4.24193 114.405 3.83193 113.825 3.54193 113.135C3.25193 112.445 3.10693 111.65 3.10693 110.75C3.10693 109.85 3.24693 109.055 3.52693 108.365C3.81693 107.675 4.22193 107.095 4.74193 106.625C5.27193 106.155 5.90693 105.8 6.64693 105.56C7.38693 105.32 8.20693 105.2 9.10693 105.2C10.0169 105.2 10.8769 105.355 11.6869 105.665C12.4969 105.975 13.1869 106.395 13.7569 106.925L13.0069 107.825C12.4369 107.295 11.8369 106.915 11.2069 106.685C10.5869 106.445 9.93693 106.325 9.25693 106.325C8.74693 106.325 8.27193 106.4 7.83193 106.55C7.39193 106.7 7.00193 106.935 6.66193 107.255C6.33193 107.565 6.05693 107.96 5.83693 108.44C5.62693 108.92 5.49693 109.49 5.44693 110.15H11.1169V111.275H5.44693C5.48693 111.955 5.61193 112.54 5.82193 113.03C6.04193 113.52 6.32193 113.925 6.66193 114.245C7.01193 114.555 7.41693 114.79 7.87693 114.95C8.34693 115.1 8.85693 115.175 9.40693 115.175ZM15.2575 105.5H20.3575C21.1275 105.5 21.7925 105.57 22.3525 105.71C22.9225 105.84 23.3925 106.03 23.7625 106.28C24.1325 106.52 24.4075 106.81 24.5875 107.15C24.7675 107.49 24.8575 107.865 24.8575 108.275C24.8575 108.805 24.7075 109.265 24.4075 109.655C24.1075 110.045 23.6575 110.335 23.0575 110.525C23.8075 110.675 24.3925 110.97 24.8125 111.41C25.2425 111.84 25.4575 112.395 25.4575 113.075C25.4575 113.975 25.0825 114.69 24.3325 115.22C23.5925 115.74 22.4175 116 20.8075 116H15.2575V105.5ZM17.4325 111.2V114.875H20.8075C21.5575 114.875 22.1325 114.725 22.5325 114.425C22.9325 114.125 23.1325 113.675 23.1325 113.075C23.1325 112.435 22.9325 111.965 22.5325 111.665C22.1325 111.355 21.5575 111.2 20.8075 111.2H17.4325ZM20.3575 110.075C21.8075 110.075 22.5325 109.475 22.5325 108.275C22.5325 107.745 22.3475 107.34 21.9775 107.06C21.6175 106.77 21.0775 106.625 20.3575 106.625H17.4325V110.075H20.3575ZM32.6546 105.5C33.4046 105.5 34.0746 105.585 34.6646 105.755C35.2646 105.915 35.7696 106.155 36.1796 106.475C36.5896 106.785 36.9046 107.17 37.1246 107.63C37.3446 108.08 37.4546 108.595 37.4546 109.175C37.4546 109.755 37.3446 110.275 37.1246 110.735C36.9046 111.185 36.5896 111.57 36.1796 111.89C35.7696 112.2 35.2646 112.44 34.6646 112.61C34.0746 112.77 33.4046 112.85 32.6546 112.85H29.4296V116H27.2546V105.5H32.6546ZM29.4296 106.625V111.725H32.6546C33.4446 111.725 34.0546 111.52 34.4846 111.11C34.9246 110.69 35.1446 110.045 35.1446 109.175C35.1446 108.305 34.9246 107.665 34.4846 107.255C34.0546 106.835 33.4446 106.625 32.6546 106.625H29.4296ZM44.8052 106.25C44.2952 106.25 43.8152 106.34 43.3652 106.52C42.9252 106.7 42.5402 106.975 42.2102 107.345C41.8802 107.715 41.6152 108.185 41.4152 108.755C41.2252 109.315 41.1302 109.98 41.1302 110.75C41.1302 111.52 41.2252 112.19 41.4152 112.76C41.6152 113.32 41.8802 113.785 42.2102 114.155C42.5402 114.525 42.9252 114.8 43.3652 114.98C43.8152 115.16 44.2952 115.25 44.8052 115.25C45.3152 115.25 45.7902 115.16 46.2302 114.98C46.6802 114.8 47.0702 114.525 47.4002 114.155C47.7302 113.785 47.9902 113.32 48.1802 112.76C48.3802 112.19 48.4802 111.52 48.4802 110.75C48.4802 109.98 48.3802 109.315 48.1802 108.755C47.9902 108.185 47.7302 107.715 47.4002 107.345C47.0702 106.975 46.6802 106.7 46.2302 106.52C45.7902 106.34 45.3152 106.25 44.8052 106.25ZM44.8052 105.2C45.7052 105.2 46.5202 105.32 47.2502 105.56C47.9902 105.8 48.6202 106.155 49.1402 106.625C49.6702 107.095 50.0802 107.675 50.3702 108.365C50.6602 109.055 50.8052 109.85 50.8052 110.75C50.8052 111.65 50.6602 112.445 50.3702 113.135C50.0802 113.825 49.6702 114.405 49.1402 114.875C48.6202 115.345 47.9902 115.7 47.2502 115.94C46.5202 116.18 45.7052 116.3 44.8052 116.3C43.9052 116.3 43.0852 116.18 42.3452 115.94C41.6052 115.7 40.9702 115.345 40.4402 114.875C39.9202 114.405 39.5152 113.825 39.2252 113.135C38.9452 112.445 38.8052 111.65 38.8052 110.75C38.8052 109.85 38.9452 109.055 39.2252 108.365C39.5152 107.675 39.9202 107.095 40.4402 106.625C40.9702 106.155 41.6052 105.8 42.3452 105.56C43.0852 105.32 43.9052 105.2 44.8052 105.2ZM63.111 105.5V116H60.936V106.625H54.786V116H52.611V105.5H63.111ZM67.3837 106.625V110.075H72.8587V111.2H67.3837V114.875H74.3587V116H65.2087V105.5H74.3587V106.625H67.3837ZM84.4831 116V107.45H84.3331L78.7081 116H75.8581V105.5H78.0331V114.05H78.1831L83.8081 105.5H86.6581V116H84.4831ZM81.1081 104.675C80.0581 104.675 79.3081 104.45 78.8581 104C78.4081 103.55 78.1831 102.95 78.1831 102.2H79.9081C79.9081 102.65 80.0231 102.975 80.2531 103.175C80.4831 103.375 80.7681 103.475 81.1081 103.475C81.4481 103.475 81.7331 103.375 81.9631 103.175C82.1931 102.975 82.3081 102.65 82.3081 102.2H84.0331C84.0331 102.95 83.8081 103.55 83.3581 104C82.9081 104.45 82.1581 104.675 81.1081 104.675ZM94.7634 115.175C95.4434 115.175 96.0934 115.06 96.7134 114.83C97.3434 114.59 97.9434 114.205 98.5134 113.675L99.2634 114.575C98.6934 115.105 98.0034 115.525 97.1934 115.835C96.3834 116.145 95.5234 116.3 94.6134 116.3C93.6734 116.3 92.8234 116.18 92.0634 115.94C91.3134 115.7 90.6684 115.345 90.1284 114.875C89.5984 114.405 89.1884 113.825 88.8984 113.135C88.6084 112.445 88.4634 111.65 88.4634 110.75C88.4634 109.85 88.6034 109.055 88.8834 108.365C89.1734 107.675 89.5784 107.095 90.0984 106.625C90.6284 106.155 91.2634 105.8 92.0034 105.56C92.7434 105.32 93.5634 105.2 94.4634 105.2C95.3734 105.2 96.2334 105.355 97.0434 105.665C97.8534 105.975 98.5434 106.395 99.1134 106.925L98.3634 107.825C97.7934 107.295 97.1934 106.915 96.5634 106.685C95.9434 106.445 95.2934 106.325 94.6134 106.325C94.0734 106.325 93.5684 106.415 93.0984 106.595C92.6284 106.765 92.2234 107.03 91.8834 107.39C91.5434 107.75 91.2734 108.21 91.0734 108.77C90.8834 109.32 90.7884 109.98 90.7884 110.75C90.7884 111.52 90.8834 112.185 91.0734 112.745C91.2734 113.295 91.5484 113.75 91.8984 114.11C92.2584 114.47 92.6784 114.74 93.1584 114.92C93.6484 115.09 94.1834 115.175 94.7634 115.175ZM106.164 109.4C107.704 109.4 108.864 109.7 109.644 110.3C110.424 110.89 110.814 111.69 110.814 112.7C110.814 113.71 110.424 114.515 109.644 115.115C108.864 115.705 107.704 116 106.164 116H100.614V105.5H102.789V109.4H106.164ZM102.789 110.525V114.875H106.164C106.884 114.875 107.449 114.695 107.859 114.335C108.279 113.965 108.489 113.42 108.489 112.7C108.489 111.98 108.279 111.44 107.859 111.08C107.449 110.71 106.884 110.525 106.164 110.525H102.789ZM119.215 110.675L123.19 116H120.715L117.265 111.35H114.64V116H112.465V105.5H114.64V110.225H117.115L120.565 105.5H122.965L119.215 110.675ZM127.163 112.325H131.813L129.563 106.775H129.413L127.163 112.325ZM131.213 105.5L135.488 116H133.328L132.338 113.45H126.638L125.648 116H123.488L127.763 105.5H131.213ZM11.3508 124.5V135H9.17578V125.625H3.02578V135H0.850781V124.5H11.3508ZM19.4484 134.175C20.1284 134.175 20.7784 134.06 21.3984 133.83C22.0284 133.59 22.6284 133.205 23.1984 132.675L23.9484 133.575C23.3784 134.105 22.6884 134.525 21.8784 134.835C21.0684 135.145 20.2084 135.3 19.2984 135.3C18.3584 135.3 17.5084 135.18 16.7484 134.94C15.9984 134.7 15.3534 134.345 14.8134 133.875C14.2834 133.405 13.8734 132.825 13.5834 132.135C13.2934 131.445 13.1484 130.65 13.1484 129.75C13.1484 128.85 13.2884 128.055 13.5684 127.365C13.8584 126.675 14.2634 126.095 14.7834 125.625C15.3134 125.155 15.9484 124.8 16.6884 124.56C17.4284 124.32 18.2484 124.2 19.1484 124.2C20.0584 124.2 20.9184 124.355 21.7284 124.665C22.5384 124.975 23.2284 125.395 23.7984 125.925L23.0484 126.825C22.4784 126.295 21.8784 125.915 21.2484 125.685C20.6284 125.445 19.9784 125.325 19.2984 125.325C18.7584 125.325 18.2534 125.415 17.7834 125.595C17.3134 125.765 16.9084 126.03 16.5684 126.39C16.2284 126.75 15.9584 127.21 15.7584 127.77C15.5684 128.32 15.4734 128.98 15.4734 129.75C15.4734 130.52 15.5684 131.185 15.7584 131.745C15.9584 132.295 16.2334 132.75 16.5834 133.11C16.9434 133.47 17.3634 133.74 17.8434 133.92C18.3334 134.09 18.8684 134.175 19.4484 134.175ZM33.924 135V126.45H33.774L28.149 135H25.299V124.5H27.474V133.05H27.624L33.249 124.5H36.099V135H33.924ZM44.1593 129.615L48.6293 135H46.0793L42.8843 131.16L39.7043 135H37.1543L41.6093 129.615L37.3793 124.5H39.9293L42.8843 128.085L45.8543 124.5H48.4043L44.1593 129.615ZM54.627 125.25C54.117 125.25 53.637 125.34 53.187 125.52C52.747 125.7 52.362 125.975 52.032 126.345C51.702 126.715 51.437 127.185 51.237 127.755C51.047 128.315 50.952 128.98 50.952 129.75C50.952 130.52 51.047 131.19 51.237 131.76C51.437 132.32 51.702 132.785 52.032 133.155C52.362 133.525 52.747 133.8 53.187 133.98C53.637 134.16 54.117 134.25 54.627 134.25C55.137 134.25 55.612 134.16 56.052 133.98C56.502 133.8 56.892 133.525 57.222 133.155C57.552 132.785 57.812 132.32 58.002 131.76C58.202 131.19 58.302 130.52 58.302 129.75C58.302 128.98 58.202 128.315 58.002 127.755C57.812 127.185 57.552 126.715 57.222 126.345C56.892 125.975 56.502 125.7 56.052 125.52C55.612 125.34 55.137 125.25 54.627 125.25ZM54.627 124.2C55.527 124.2 56.342 124.32 57.072 124.56C57.812 124.8 58.442 125.155 58.962 125.625C59.492 126.095 59.902 126.675 60.192 127.365C60.482 128.055 60.627 128.85 60.627 129.75C60.627 130.65 60.482 131.445 60.192 132.135C59.902 132.825 59.492 133.405 58.962 133.875C58.442 134.345 57.812 134.7 57.072 134.94C56.342 135.18 55.527 135.3 54.627 135.3C53.727 135.3 52.907 135.18 52.167 134.94C51.427 134.7 50.792 134.345 50.262 133.875C49.742 133.405 49.337 132.825 49.047 132.135C48.767 131.445 48.627 130.65 48.627 129.75C48.627 128.85 48.767 128.055 49.047 127.365C49.337 126.675 49.742 126.095 50.262 125.625C50.792 125.155 51.427 124.8 52.167 124.56C52.907 124.32 53.727 124.2 54.627 124.2ZM61.6828 134.1H62.1328C62.4328 134.1 62.6978 133.975 62.9278 133.725C63.1578 133.475 63.2928 133.05 63.3328 132.45L63.8578 124.5H72.7828V135H70.6078V125.625H65.8828L65.4328 132.45C65.3628 133.43 65.0878 134.14 64.6078 134.58C64.1378 135.01 63.4878 135.225 62.6578 135.225C62.3978 135.225 62.1678 135.2 61.9678 135.15C61.8578 135.13 61.7628 135.105 61.6828 135.075V134.1ZM80.584 125.25C80.074 125.25 79.594 125.34 79.144 125.52C78.704 125.7 78.319 125.975 77.989 126.345C77.659 126.715 77.394 127.185 77.194 127.755C77.004 128.315 76.909 128.98 76.909 129.75C76.909 130.52 77.004 131.19 77.194 131.76C77.394 132.32 77.659 132.785 77.989 133.155C78.319 133.525 78.704 133.8 79.144 133.98C79.594 134.16 80.074 134.25 80.584 134.25C81.094 134.25 81.569 134.16 82.009 133.98C82.459 133.8 82.849 133.525 83.179 133.155C83.509 132.785 83.769 132.32 83.959 131.76C84.159 131.19 84.259 130.52 84.259 129.75C84.259 128.98 84.159 128.315 83.959 127.755C83.769 127.185 83.509 126.715 83.179 126.345C82.849 125.975 82.459 125.7 82.009 125.52C81.569 125.34 81.094 125.25 80.584 125.25ZM80.584 124.2C81.484 124.2 82.299 124.32 83.029 124.56C83.769 124.8 84.399 125.155 84.919 125.625C85.449 126.095 85.859 126.675 86.149 127.365C86.439 128.055 86.584 128.85 86.584 129.75C86.584 130.65 86.439 131.445 86.149 132.135C85.859 132.825 85.449 133.405 84.919 133.875C84.399 134.345 83.769 134.7 83.029 134.94C82.299 135.18 81.484 135.3 80.584 135.3C79.684 135.3 78.864 135.18 78.124 134.94C77.384 134.7 76.749 134.345 76.219 133.875C75.699 133.405 75.294 132.825 75.004 132.135C74.724 131.445 74.584 130.65 74.584 129.75C74.584 128.85 74.724 128.055 75.004 127.365C75.294 126.675 75.699 126.095 76.219 125.625C76.749 125.155 77.384 124.8 78.124 124.56C78.864 124.32 79.684 124.2 80.584 124.2ZM90.5648 125.625V135H88.3898V124.5H97.0898V125.625H90.5648ZM100.467 135H98.2922V124.5H100.467V135ZM107.22 131.55C106.34 131.55 105.585 131.48 104.955 131.34C104.335 131.2 103.825 130.995 103.425 130.725C103.025 130.455 102.73 130.12 102.54 129.72C102.36 129.32 102.27 128.855 102.27 128.325V124.5H104.445V128.325C104.445 129.035 104.655 129.565 105.075 129.915C105.495 130.255 106.21 130.425 107.22 130.425H110.07V124.5H112.245V135H110.07V131.55H107.22ZM124.847 124.5V135H122.672V130.425H116.522V135H114.347V124.5H116.522V129.3H122.672V124.5H124.847ZM129.72 131.325H134.37L132.12 125.775H131.97L129.72 131.325ZM133.77 124.5L138.045 135H135.885L134.895 132.45H129.195L128.205 135H126.045L130.32 124.5H133.77ZM25.0418 150.325H29.6918L27.4418 144.775H27.2918L25.0418 150.325ZM29.0918 143.5L33.3668 154H31.2068L30.2168 151.45H24.5168L23.5268 154H21.3668L25.6418 143.5H29.0918ZM39.8244 153.175C40.5044 153.175 41.1544 153.06 41.7744 152.83C42.4044 152.59 43.0044 152.205 43.5744 151.675L44.3244 152.575C43.7544 153.105 43.0644 153.525 42.2544 153.835C41.4444 154.145 40.5844 154.3 39.6744 154.3C38.7344 154.3 37.8844 154.18 37.1244 153.94C36.3744 153.7 35.7294 153.345 35.1894 152.875C34.6594 152.405 34.2494 151.825 33.9594 151.135C33.6694 150.445 33.5244 149.65 33.5244 148.75C33.5244 147.85 33.6644 147.055 33.9444 146.365C34.2344 145.675 34.6394 145.095 35.1594 144.625C35.6894 144.155 36.3244 143.8 37.0644 143.56C37.8044 143.32 38.6244 143.2 39.5244 143.2C40.4344 143.2 41.2944 143.355 42.1044 143.665C42.9144 143.975 43.6044 144.395 44.1744 144.925L43.4244 145.825C42.8544 145.295 42.2544 144.915 41.6244 144.685C41.0044 144.445 40.3544 144.325 39.6744 144.325C39.1344 144.325 38.6294 144.415 38.1594 144.595C37.6894 144.765 37.2844 145.03 36.9444 145.39C36.6044 145.75 36.3344 146.21 36.1344 146.77C35.9444 147.32 35.8494 147.98 35.8494 148.75C35.8494 149.52 35.9444 150.185 36.1344 150.745C36.3344 151.295 36.6094 151.75 36.9594 152.11C37.3194 152.47 37.7394 152.74 38.2194 152.92C38.7094 153.09 39.2444 153.175 39.8244 153.175ZM50.9209 144.25C50.4109 144.25 49.9309 144.34 49.4809 144.52C49.0409 144.7 48.6559 144.975 48.3259 145.345C47.9959 145.715 47.7309 146.185 47.5309 146.755C47.3409 147.315 47.2459 147.98 47.2459 148.75C47.2459 149.52 47.3409 150.19 47.5309 150.76C47.7309 151.32 47.9959 151.785 48.3259 152.155C48.6559 152.525 49.0409 152.8 49.4809 152.98C49.9309 153.16 50.4109 153.25 50.9209 153.25C51.4309 153.25 51.9059 153.16 52.3459 152.98C52.7959 152.8 53.1859 152.525 53.5159 152.155C53.8459 151.785 54.1059 151.32 54.2959 150.76C54.4959 150.19 54.5959 149.52 54.5959 148.75C54.5959 147.98 54.4959 147.315 54.2959 146.755C54.1059 146.185 53.8459 145.715 53.5159 145.345C53.1859 144.975 52.7959 144.7 52.3459 144.52C51.9059 144.34 51.4309 144.25 50.9209 144.25ZM50.9209 143.2C51.8209 143.2 52.6359 143.32 53.3659 143.56C54.1059 143.8 54.7359 144.155 55.2559 144.625C55.7859 145.095 56.1959 145.675 56.4859 146.365C56.7759 147.055 56.9209 147.85 56.9209 148.75C56.9209 149.65 56.7759 150.445 56.4859 151.135C56.1959 151.825 55.7859 152.405 55.2559 152.875C54.7359 153.345 54.1059 153.7 53.3659 153.94C52.6359 154.18 51.8209 154.3 50.9209 154.3C50.0209 154.3 49.2009 154.18 48.4609 153.94C47.7209 153.7 47.0859 153.345 46.5559 152.875C46.0359 152.405 45.6309 151.825 45.3409 151.135C45.0609 150.445 44.9209 149.65 44.9209 148.75C44.9209 147.85 45.0609 147.055 45.3409 146.365C45.6309 145.675 46.0359 145.095 46.5559 144.625C47.0859 144.155 47.7209 143.8 48.4609 143.56C49.2009 143.32 50.0209 143.2 50.9209 143.2ZM70.2018 152.875V156.4H68.4018L68.1018 154H58.7268V143.5H60.9018V152.875H66.7518V143.5H68.9268V152.875H70.2018ZM74.0268 154H71.8518V143.5H74.0268V154ZM78.9041 150.325H83.5541L81.3041 144.775H81.1541L78.9041 150.325ZM82.9541 143.5L87.2291 154H85.0691L84.0791 151.45H78.3791L77.3891 154H75.2291L79.5041 143.5H82.9541ZM99.9088 152.875V156.4H98.1088L97.8088 154H88.4338V143.5H90.6088V152.875H96.4588V143.5H98.6338V152.875H99.9088ZM103.734 154H101.559V143.5H103.734V154ZM105.386 154L107.861 150.46C107.111 150.17 106.536 149.75 106.136 149.2C105.736 148.65 105.536 147.975 105.536 147.175C105.536 146.595 105.646 146.08 105.866 145.63C106.086 145.17 106.401 144.785 106.811 144.475C107.221 144.155 107.721 143.915 108.311 143.755C108.911 143.585 109.586 143.5 110.336 143.5H115.736V154H113.561V150.85H110.336H110.066L107.861 154H105.386ZM110.336 144.625C109.546 144.625 108.936 144.835 108.506 145.255C108.076 145.665 107.861 146.305 107.861 147.175C107.861 148.045 108.076 148.69 108.506 149.11C108.936 149.52 109.546 149.725 110.336 149.725H113.561V144.625H110.336Z" fill="white"/>
<path d="M66.2981 0L67.78 4.05292L72.0903 4.20735L68.6957 6.87046L69.8796 11.0182L66.2981 8.60975L62.7193 11.0182L63.9005 6.87046L60.5059 4.20735L64.8162 4.05292L66.2981 0Z" fill="#FED116"/>
<path d="M66.2981 74.9004L67.78 78.9506L72.0903 79.1077L68.6957 81.7681L69.8796 85.9186L66.2981 83.5101L62.7193 85.9186L63.9005 81.7681L60.5059 79.1077L64.8162 78.9506L66.2981 74.9004Z" fill="#FED116"/>
<path d="M85.1731 4.92822L86.655 8.97844L90.9653 9.13557L87.5707 11.796L88.7546 15.9464L85.1731 13.538L81.5942 15.9464L82.7755 11.796L79.3809 9.13557L83.6911 8.97844L85.1731 4.92822Z" fill="#FED116"/>
<path d="M85.1731 69.6797L86.655 73.7326L90.9653 73.8897L87.5707 76.5501L88.7546 80.7006L85.1731 78.2922L81.5942 80.7006L82.7755 76.5501L79.3809 73.8897L83.6911 73.7326L85.1731 69.6797Z" fill="#FED116"/>
<path d="M48.2229 4.92822L49.7048 8.97844L54.0178 9.13557L50.6205 11.796L51.8044 15.9464L48.2229 13.538L44.6441 15.9464L45.828 11.796L42.4307 9.13557L46.7437 8.97844L48.2229 4.92822Z" fill="#FED116"/>
<path d="M48.2229 69.6797L49.7048 73.7326L54.0178 73.8897L50.6205 76.5501L51.8044 80.7006L48.2229 78.2922L44.6441 80.7006L45.828 76.5501L42.4307 73.8897L46.7437 73.7326L48.2229 69.6797Z" fill="#FED116"/>
<path d="M34.5842 18.8022L36.0661 22.8552L40.3791 23.0123L36.9818 25.6727L38.1657 29.8232L34.5842 27.4147L31.0054 29.8232L32.1893 25.6727L28.792 23.0123L33.1023 22.8552L34.5842 18.8022Z" fill="#FED116"/>
<path d="M34.5842 56.2051L36.0661 60.2553L40.3791 60.4124L36.9818 63.0728L38.1657 67.2233L34.5842 64.8148L31.0054 67.2233L32.1893 63.0728L28.792 60.4124L33.1023 60.2553L34.5842 56.2051Z" fill="#FED116"/>
<path d="M98.7268 18.8022L100.209 22.8552L104.522 23.0123L101.124 25.6727L102.308 29.8232L98.7268 27.4147L95.148 29.8232L96.3319 25.6727L92.9346 23.0123L97.2476 22.8552L98.7268 18.8022Z" fill="#FED116"/>
<path d="M98.7268 56.2051L100.209 60.2553L104.522 60.4124L101.124 63.0728L102.308 67.2233L98.7268 64.8148L95.148 67.2233L96.3319 63.0728L92.9346 60.4124L97.2476 60.2553L98.7268 56.2051Z" fill="#FED116"/>
<path d="M103.208 37.3564L104.687 41.4094L109 41.5665L105.603 44.2269L106.787 48.3774L103.208 45.9689L99.6265 48.3774L100.81 44.2269L97.4131 41.5665L101.726 41.4094L103.208 37.3564Z" fill="#FED116"/>
<path d="M28.7922 37.3564L30.2741 41.4094L34.5844 41.5665L31.1898 44.2269L32.3737 48.3774L28.7922 45.9689L25.2134 48.3774L26.3946 44.2269L23 41.5665L27.3103 41.4094L28.7922 37.3564Z" fill="#FED116"/>
<path d="M50.124 66.274C52.462 64.9113 54.1797 63.5296 55.3473 62.4811C64.7265 54.0556 68.3026 40.3797 65.1166 29.1854C64.6425 27.522 64.1034 26.2026 63.7322 25.3682C64.1088 25.7637 64.7807 26.506 65.4688 27.522C72.7456 38.2422 67.6659 58.1681 55.22 64.5076C53.2531 65.51 51.4298 66.0058 50.124 66.2713V66.274Z" fill="white"/>
<path d="M67.5879 50.1683C68.463 49.9353 69.9936 49.4178 71.378 48.177C77.6471 42.5582 71.5812 30.4997 77.3165 24.9702C78.4788 23.8486 80.6759 22.4697 85.0891 22.5076C84.0922 22.6918 82.1632 23.1957 80.5946 24.8023C79.2996 26.1271 78.7795 27.6632 78.4652 29.0177C76.7639 36.365 80.7762 40.0062 78.5004 44.842C76.8208 48.41 73.0685 49.7592 72.7814 49.8567C70.6005 50.6044 68.6445 50.3769 67.5879 50.1683Z" fill="white"/>
<path d="M63.6051 46.2424C58.5877 46.6136 56.4394 45.2699 55.3936 44.0507C51.5926 39.6131 57.0354 30.5238 52.866 26.7581C51.804 25.799 50.5009 25.5308 49.7314 25.4387C52.6872 25.1407 54.3154 25.8938 55.2636 26.6741C59.6958 30.3125 55.4532 39.5508 60.625 44.4381C61.6789 45.4324 62.814 45.958 63.6051 46.2452V46.2424Z" fill="white"/>
</svg>
