<svg width="278" height="101" viewBox="0 0 278 101" fill="none" xmlns="http://www.w3.org/2000/svg">
<path d="M129.225 23.625V27.075H134.7V28.2H129.225V31.875H136.2V33H127.05V22.5H136.2V23.625H129.225ZM143.099 32.25C143.589 32.25 144.029 32.185 144.419 32.055C144.819 31.915 145.159 31.705 145.439 31.425C145.719 31.135 145.934 30.77 146.084 30.33C146.244 29.88 146.324 29.345 146.324 28.725V22.5H148.499V28.725C148.499 30.265 148.029 31.415 147.089 32.175C146.149 32.925 144.819 33.3 143.099 33.3C141.369 33.3 140.034 32.925 139.094 32.175C138.164 31.415 137.699 30.265 137.699 28.725V22.5H139.874V28.725C139.874 29.345 139.949 29.88 140.099 30.33C140.259 30.77 140.479 31.135 140.759 31.425C141.039 31.705 141.374 31.915 141.764 32.055C142.164 32.185 142.609 32.25 143.099 32.25ZM156.005 22.5C156.755 22.5 157.425 22.585 158.015 22.755C158.615 22.915 159.12 23.155 159.53 23.475C159.94 23.785 160.255 24.17 160.475 24.63C160.695 25.08 160.805 25.595 160.805 26.175C160.805 26.975 160.605 27.65 160.205 28.2C159.805 28.75 159.23 29.17 158.48 29.46L160.955 33H158.48L156.275 29.85H156.005H152.78V33H150.605V22.5H156.005ZM152.78 23.625V28.725H156.005C156.795 28.725 157.405 28.52 157.835 28.11C158.265 27.69 158.48 27.045 158.48 26.175C158.48 25.305 158.265 24.665 157.835 24.255C157.405 23.835 156.795 23.625 156.005 23.625H152.78ZM168.302 23.25C167.792 23.25 167.312 23.34 166.862 23.52C166.422 23.7 166.037 23.975 165.707 24.345C165.377 24.715 165.112 25.185 164.912 25.755C164.722 26.315 164.627 26.98 164.627 27.75C164.627 28.52 164.722 29.19 164.912 29.76C165.112 30.32 165.377 30.785 165.707 31.155C166.037 31.525 166.422 31.8 166.862 31.98C167.312 32.16 167.792 32.25 168.302 32.25C168.812 32.25 169.287 32.16 169.727 31.98C170.177 31.8 170.567 31.525 170.897 31.155C171.227 30.785 171.487 30.32 171.677 29.76C171.877 29.19 171.977 28.52 171.977 27.75C171.977 26.98 171.877 26.315 171.677 25.755C171.487 25.185 171.227 24.715 170.897 24.345C170.567 23.975 170.177 23.7 169.727 23.52C169.287 23.34 168.812 23.25 168.302 23.25ZM168.302 22.2C169.202 22.2 170.017 22.32 170.747 22.56C171.487 22.8 172.117 23.155 172.637 23.625C173.167 24.095 173.577 24.675 173.867 25.365C174.157 26.055 174.302 26.85 174.302 27.75C174.302 28.65 174.157 29.445 173.867 30.135C173.577 30.825 173.167 31.405 172.637 31.875C172.117 32.345 171.487 32.7 170.747 32.94C170.017 33.18 169.202 33.3 168.302 33.3C167.402 33.3 166.582 33.18 165.842 32.94C165.102 32.7 164.467 32.345 163.937 31.875C163.417 31.405 163.012 30.825 162.722 30.135C162.442 29.445 162.302 28.65 162.302 27.75C162.302 26.85 162.442 26.055 162.722 25.365C163.012 24.675 163.417 24.095 163.937 23.625C164.467 23.155 165.102 22.8 165.842 22.56C166.582 22.32 167.402 22.2 168.302 22.2ZM181.508 22.5C182.258 22.5 182.928 22.585 183.518 22.755C184.118 22.915 184.623 23.155 185.033 23.475C185.443 23.785 185.758 24.17 185.978 24.63C186.198 25.08 186.308 25.595 186.308 26.175C186.308 26.755 186.198 27.275 185.978 27.735C185.758 28.185 185.443 28.57 185.033 28.89C184.623 29.2 184.118 29.44 183.518 29.61C182.928 29.77 182.258 29.85 181.508 29.85H178.283V33H176.108V22.5H181.508ZM178.283 23.625V28.725H181.508C182.298 28.725 182.908 28.52 183.338 28.11C183.778 27.69 183.998 27.045 183.998 26.175C183.998 25.305 183.778 24.665 183.338 24.255C182.908 23.835 182.298 23.625 181.508 23.625H178.283ZM190.133 23.625V27.075H195.608V28.2H190.133V31.875H197.108V33H187.958V22.5H197.108V23.625H190.133ZM201.383 29.325H206.033L203.783 23.775H203.633L201.383 29.325ZM205.433 22.5L209.708 33H207.548L206.558 30.45H200.858L199.868 33H197.708L201.983 22.5H205.433ZM221.712 22.5V33H218.862L213.237 24.45H213.087V33H210.912V22.5H213.762L219.387 31.05H219.537V22.5H221.712ZM132.45 41.5C133.2 41.5 133.87 41.585 134.46 41.755C135.06 41.915 135.565 42.155 135.975 42.475C136.385 42.785 136.7 43.17 136.92 43.63C137.14 44.08 137.25 44.595 137.25 45.175C137.25 45.755 137.14 46.275 136.92 46.735C136.7 47.185 136.385 47.57 135.975 47.89C135.565 48.2 135.06 48.44 134.46 48.61C133.87 48.77 133.2 48.85 132.45 48.85H129.225V52H127.05V41.5H132.45ZM129.225 42.625V47.725H132.45C133.24 47.725 133.85 47.52 134.28 47.11C134.72 46.69 134.94 46.045 134.94 45.175C134.94 44.305 134.72 43.665 134.28 43.255C133.85 42.835 133.24 42.625 132.45 42.625H129.225ZM148.651 49.225C148.651 49.655 148.561 50.06 148.381 50.44C148.201 50.81 147.906 51.135 147.496 51.415C147.096 51.685 146.571 51.9 145.921 52.06C145.281 52.22 144.491 52.3 143.551 52.3C143.021 52.3 142.501 52.26 141.991 52.18C141.491 52.1 141.011 51.985 140.551 51.835C140.101 51.685 139.681 51.505 139.291 51.295C138.911 51.075 138.581 50.835 138.301 50.575L139.051 49.675C139.621 50.165 140.286 50.54 141.046 50.8C141.806 51.05 142.641 51.175 143.551 51.175C144.561 51.175 145.276 51.035 145.696 50.755C146.116 50.475 146.326 50.09 146.326 49.6C146.326 49.22 146.161 48.9 145.831 48.64C145.501 48.38 144.941 48.125 144.151 47.875L141.301 46.975C140.361 46.675 139.651 46.295 139.171 45.835C138.691 45.365 138.451 44.77 138.451 44.05C138.451 43.68 138.536 43.325 138.706 42.985C138.886 42.635 139.161 42.33 139.531 42.07C139.901 41.8 140.371 41.59 140.941 41.44C141.521 41.28 142.216 41.2 143.026 41.2C143.516 41.2 144.001 41.24 144.481 41.32C144.971 41.4 145.436 41.515 145.876 41.665C146.326 41.815 146.741 42 147.121 42.22C147.511 42.43 147.846 42.665 148.126 42.925L147.376 43.825C146.806 43.335 146.166 42.965 145.456 42.715C144.746 42.455 143.936 42.325 143.026 42.325C142.276 42.325 141.711 42.455 141.331 42.715C140.961 42.975 140.776 43.295 140.776 43.675C140.776 43.885 140.811 44.07 140.881 44.23C140.951 44.38 141.066 44.525 141.226 44.665C141.396 44.795 141.616 44.92 141.886 45.04C142.156 45.15 142.491 45.27 142.891 45.4L145.726 46.3C146.636 46.59 147.351 46.97 147.871 47.44C148.391 47.91 148.651 48.505 148.651 49.225ZM155.696 48.85V52H153.521V48.85L148.646 41.5H151.046L154.571 46.825H154.646L158.171 41.5H160.571L155.696 48.85ZM166.873 51.175C167.553 51.175 168.203 51.06 168.823 50.83C169.453 50.59 170.053 50.205 170.623 49.675L171.373 50.575C170.803 51.105 170.113 51.525 169.303 51.835C168.493 52.145 167.633 52.3 166.723 52.3C165.783 52.3 164.933 52.18 164.173 51.94C163.423 51.7 162.778 51.345 162.238 50.875C161.708 50.405 161.298 49.825 161.008 49.135C160.718 48.445 160.573 47.65 160.573 46.75C160.573 45.85 160.713 45.055 160.993 44.365C161.283 43.675 161.688 43.095 162.208 42.625C162.738 42.155 163.373 41.8 164.113 41.56C164.853 41.32 165.673 41.2 166.573 41.2C167.483 41.2 168.343 41.355 169.153 41.665C169.963 41.975 170.653 42.395 171.223 42.925L170.473 43.825C169.903 43.295 169.303 42.915 168.673 42.685C168.053 42.445 167.403 42.325 166.723 42.325C166.183 42.325 165.678 42.415 165.208 42.595C164.738 42.765 164.333 43.03 163.993 43.39C163.653 43.75 163.383 44.21 163.183 44.77C162.993 45.32 162.898 45.98 162.898 46.75C162.898 47.52 162.993 48.185 163.183 48.745C163.383 49.295 163.658 49.75 164.008 50.11C164.368 50.47 164.788 50.74 165.268 50.92C165.758 51.09 166.293 51.175 166.873 51.175ZM183.224 41.5V52H181.049V47.425H174.899V52H172.724V41.5H174.899V46.3H181.049V41.5H183.224ZM191.021 42.25C190.511 42.25 190.031 42.34 189.581 42.52C189.141 42.7 188.756 42.975 188.426 43.345C188.096 43.715 187.831 44.185 187.631 44.755C187.441 45.315 187.346 45.98 187.346 46.75C187.346 47.52 187.441 48.19 187.631 48.76C187.831 49.32 188.096 49.785 188.426 50.155C188.756 50.525 189.141 50.8 189.581 50.98C190.031 51.16 190.511 51.25 191.021 51.25C191.531 51.25 192.006 51.16 192.446 50.98C192.896 50.8 193.286 50.525 193.616 50.155C193.946 49.785 194.206 49.32 194.396 48.76C194.596 48.19 194.696 47.52 194.696 46.75C194.696 45.98 194.596 45.315 194.396 44.755C194.206 44.185 193.946 43.715 193.616 43.345C193.286 42.975 192.896 42.7 192.446 42.52C192.006 42.34 191.531 42.25 191.021 42.25ZM191.021 41.2C191.921 41.2 192.736 41.32 193.466 41.56C194.206 41.8 194.836 42.155 195.356 42.625C195.886 43.095 196.296 43.675 196.586 44.365C196.876 45.055 197.021 45.85 197.021 46.75C197.021 47.65 196.876 48.445 196.586 49.135C196.296 49.825 195.886 50.405 195.356 50.875C194.836 51.345 194.206 51.7 193.466 51.94C192.736 52.18 191.921 52.3 191.021 52.3C190.121 52.3 189.301 52.18 188.561 51.94C187.821 51.7 187.186 51.345 186.656 50.875C186.136 50.405 185.731 49.825 185.441 49.135C185.161 48.445 185.021 47.65 185.021 46.75C185.021 45.85 185.161 45.055 185.441 44.365C185.731 43.675 186.136 43.095 186.656 42.625C187.186 42.155 187.821 41.8 188.561 41.56C189.301 41.32 190.121 41.2 191.021 41.2ZM207.452 50.875V52H198.827V41.5H201.002V50.875H207.452ZM213.448 42.25C212.938 42.25 212.458 42.34 212.008 42.52C211.568 42.7 211.183 42.975 210.853 43.345C210.523 43.715 210.258 44.185 210.058 44.755C209.868 45.315 209.773 45.98 209.773 46.75C209.773 47.52 209.868 48.19 210.058 48.76C210.258 49.32 210.523 49.785 210.853 50.155C211.183 50.525 211.568 50.8 212.008 50.98C212.458 51.16 212.938 51.25 213.448 51.25C213.958 51.25 214.433 51.16 214.873 50.98C215.323 50.8 215.713 50.525 216.043 50.155C216.373 49.785 216.633 49.32 216.823 48.76C217.023 48.19 217.123 47.52 217.123 46.75C217.123 45.98 217.023 45.315 216.823 44.755C216.633 44.185 216.373 43.715 216.043 43.345C215.713 42.975 215.323 42.7 214.873 42.52C214.433 42.34 213.958 42.25 213.448 42.25ZM213.448 41.2C214.348 41.2 215.163 41.32 215.893 41.56C216.633 41.8 217.263 42.155 217.783 42.625C218.313 43.095 218.723 43.675 219.013 44.365C219.303 45.055 219.448 45.85 219.448 46.75C219.448 47.65 219.303 48.445 219.013 49.135C218.723 49.825 218.313 50.405 217.783 50.875C217.263 51.345 216.633 51.7 215.893 51.94C215.163 52.18 214.348 52.3 213.448 52.3C212.548 52.3 211.728 52.18 210.988 51.94C210.248 51.7 209.613 51.345 209.083 50.875C208.563 50.405 208.158 49.825 207.868 49.135C207.588 48.445 207.448 47.65 207.448 46.75C207.448 45.85 207.588 45.055 207.868 44.365C208.158 43.675 208.563 43.095 209.083 42.625C209.613 42.155 210.248 41.8 210.988 41.56C211.728 41.32 212.548 41.2 213.448 41.2ZM226.654 41.2C227.564 41.2 228.424 41.355 229.234 41.665C230.044 41.975 230.734 42.395 231.304 42.925L230.554 43.825C229.984 43.295 229.384 42.915 228.754 42.685C228.134 42.445 227.484 42.325 226.804 42.325C226.294 42.325 225.824 42.415 225.394 42.595C224.964 42.765 224.589 43.03 224.269 43.39C223.959 43.75 223.714 44.21 223.534 44.77C223.364 45.32 223.279 45.98 223.279 46.75C223.279 47.54 223.369 48.22 223.549 48.79C223.729 49.35 223.979 49.815 224.299 50.185C224.619 50.545 225.004 50.815 225.454 50.995C225.914 51.165 226.414 51.25 226.954 51.25C227.404 51.25 227.789 51.21 228.109 51.13C228.439 51.05 228.714 50.955 228.934 50.845C229.194 50.725 229.409 50.585 229.579 50.425V47.575H227.629V46.6H231.754V50.725C231.384 51.025 230.954 51.29 230.464 51.52C230.044 51.72 229.524 51.9 228.904 52.06C228.294 52.22 227.594 52.3 226.804 52.3C225.904 52.3 225.094 52.18 224.374 51.94C223.654 51.7 223.039 51.345 222.529 50.875C222.019 50.405 221.629 49.825 221.359 49.135C221.089 48.445 220.954 47.65 220.954 46.75C220.954 45.85 221.089 45.055 221.359 44.365C221.629 43.675 222.009 43.095 222.499 42.625C222.999 42.155 223.599 41.8 224.299 41.56C225.009 41.32 225.794 41.2 226.654 41.2ZM235.734 52H233.559V41.5H235.734V52ZM243.836 51.175C244.516 51.175 245.166 51.06 245.786 50.83C246.416 50.59 247.016 50.205 247.586 49.675L248.336 50.575C247.766 51.105 247.076 51.525 246.266 51.835C245.456 52.145 244.596 52.3 243.686 52.3C242.746 52.3 241.896 52.18 241.136 51.94C240.386 51.7 239.741 51.345 239.201 50.875C238.671 50.405 238.261 49.825 237.971 49.135C237.681 48.445 237.536 47.65 237.536 46.75C237.536 45.85 237.676 45.055 237.956 44.365C238.246 43.675 238.651 43.095 239.171 42.625C239.701 42.155 240.336 41.8 241.076 41.56C241.816 41.32 242.636 41.2 243.536 41.2C244.446 41.2 245.306 41.355 246.116 41.665C246.926 41.975 247.616 42.395 248.186 42.925L247.436 43.825C246.866 43.295 246.266 42.915 245.636 42.685C245.016 42.445 244.366 42.325 243.686 42.325C243.146 42.325 242.641 42.415 242.171 42.595C241.701 42.765 241.296 43.03 240.956 43.39C240.616 43.75 240.346 44.21 240.146 44.77C239.956 45.32 239.861 45.98 239.861 46.75C239.861 47.52 239.956 48.185 240.146 48.745C240.346 49.295 240.621 49.75 240.971 50.11C241.331 50.47 241.751 50.74 242.231 50.92C242.721 51.09 243.256 51.175 243.836 51.175ZM252.462 48.325H257.112L254.862 42.775H254.712L252.462 48.325ZM256.512 41.5L260.787 52H258.627L257.637 49.45H251.937L250.947 52H248.787L253.062 41.5H256.512ZM270.616 50.875V52H261.991V41.5H264.166V50.875H270.616ZM129.825 67.325H134.475L132.225 61.775H132.075L129.825 67.325ZM133.875 60.5L138.15 71H135.99L135 68.45H129.3L128.31 71H126.15L130.425 60.5H133.875ZM149.105 68.225C149.105 68.655 149.015 69.06 148.835 69.44C148.655 69.81 148.36 70.135 147.95 70.415C147.55 70.685 147.025 70.9 146.375 71.06C145.735 71.22 144.945 71.3 144.005 71.3C143.475 71.3 142.955 71.26 142.445 71.18C141.945 71.1 141.465 70.985 141.005 70.835C140.555 70.685 140.135 70.505 139.745 70.295C139.365 70.075 139.035 69.835 138.755 69.575L139.505 68.675C140.075 69.165 140.74 69.54 141.5 69.8C142.26 70.05 143.095 70.175 144.005 70.175C145.015 70.175 145.73 70.035 146.15 69.755C146.57 69.475 146.78 69.09 146.78 68.6C146.78 68.22 146.615 67.9 146.285 67.64C145.955 67.38 145.395 67.125 144.605 66.875L141.755 65.975C140.815 65.675 140.105 65.295 139.625 64.835C139.145 64.365 138.905 63.77 138.905 63.05C138.905 62.68 138.99 62.325 139.16 61.985C139.34 61.635 139.615 61.33 139.985 61.07C140.355 60.8 140.825 60.59 141.395 60.44C141.975 60.28 142.67 60.2 143.48 60.2C143.97 60.2 144.455 60.24 144.935 60.32C145.425 60.4 145.89 60.515 146.33 60.665C146.78 60.815 147.195 61 147.575 61.22C147.965 61.43 148.3 61.665 148.58 61.925L147.83 62.825C147.26 62.335 146.62 61.965 145.91 61.715C145.2 61.455 144.39 61.325 143.48 61.325C142.73 61.325 142.165 61.455 141.785 61.715C141.415 61.975 141.23 62.295 141.23 62.675C141.23 62.885 141.265 63.07 141.335 63.23C141.405 63.38 141.52 63.525 141.68 63.665C141.85 63.795 142.07 63.92 142.34 64.04C142.61 64.15 142.945 64.27 143.345 64.4L146.18 65.3C147.09 65.59 147.805 65.97 148.325 66.44C148.845 66.91 149.105 67.505 149.105 68.225ZM160.355 68.225C160.355 68.655 160.265 69.06 160.085 69.44C159.905 69.81 159.61 70.135 159.2 70.415C158.8 70.685 158.275 70.9 157.625 71.06C156.985 71.22 156.195 71.3 155.255 71.3C154.725 71.3 154.205 71.26 153.695 71.18C153.195 71.1 152.715 70.985 152.255 70.835C151.805 70.685 151.385 70.505 150.995 70.295C150.615 70.075 150.285 69.835 150.005 69.575L150.755 68.675C151.325 69.165 151.99 69.54 152.75 69.8C153.51 70.05 154.345 70.175 155.255 70.175C156.265 70.175 156.98 70.035 157.4 69.755C157.82 69.475 158.03 69.09 158.03 68.6C158.03 68.22 157.865 67.9 157.535 67.64C157.205 67.38 156.645 67.125 155.855 66.875L153.005 65.975C152.065 65.675 151.355 65.295 150.875 64.835C150.395 64.365 150.155 63.77 150.155 63.05C150.155 62.68 150.24 62.325 150.41 61.985C150.59 61.635 150.865 61.33 151.235 61.07C151.605 60.8 152.075 60.59 152.645 60.44C153.225 60.28 153.92 60.2 154.73 60.2C155.22 60.2 155.705 60.24 156.185 60.32C156.675 60.4 157.14 60.515 157.58 60.665C158.03 60.815 158.445 61 158.825 61.22C159.215 61.43 159.55 61.665 159.83 61.925L159.08 62.825C158.51 62.335 157.87 61.965 157.16 61.715C156.45 61.455 155.64 61.325 154.73 61.325C153.98 61.325 153.415 61.455 153.035 61.715C152.665 61.975 152.48 62.295 152.48 62.675C152.48 62.885 152.515 63.07 152.585 63.23C152.655 63.38 152.77 63.525 152.93 63.665C153.1 63.795 153.32 63.92 153.59 64.04C153.86 64.15 154.195 64.27 154.595 64.4L157.43 65.3C158.34 65.59 159.055 65.97 159.575 66.44C160.095 66.91 160.355 67.505 160.355 68.225ZM167.555 61.25C167.045 61.25 166.565 61.34 166.115 61.52C165.675 61.7 165.29 61.975 164.96 62.345C164.63 62.715 164.365 63.185 164.165 63.755C163.975 64.315 163.88 64.98 163.88 65.75C163.88 66.52 163.975 67.19 164.165 67.76C164.365 68.32 164.63 68.785 164.96 69.155C165.29 69.525 165.675 69.8 166.115 69.98C166.565 70.16 167.045 70.25 167.555 70.25C168.065 70.25 168.54 70.16 168.98 69.98C169.43 69.8 169.82 69.525 170.15 69.155C170.48 68.785 170.74 68.32 170.93 67.76C171.13 67.19 171.23 66.52 171.23 65.75C171.23 64.98 171.13 64.315 170.93 63.755C170.74 63.185 170.48 62.715 170.15 62.345C169.82 61.975 169.43 61.7 168.98 61.52C168.54 61.34 168.065 61.25 167.555 61.25ZM167.555 60.2C168.455 60.2 169.27 60.32 170 60.56C170.74 60.8 171.37 61.155 171.89 61.625C172.42 62.095 172.83 62.675 173.12 63.365C173.41 64.055 173.555 64.85 173.555 65.75C173.555 66.65 173.41 67.445 173.12 68.135C172.83 68.825 172.42 69.405 171.89 69.875C171.37 70.345 170.74 70.7 170 70.94C169.27 71.18 168.455 71.3 167.555 71.3C166.655 71.3 165.835 71.18 165.095 70.94C164.355 70.7 163.72 70.345 163.19 69.875C162.67 69.405 162.265 68.825 161.975 68.135C161.695 67.445 161.555 66.65 161.555 65.75C161.555 64.85 161.695 64.055 161.975 63.365C162.265 62.675 162.67 62.095 163.19 61.625C163.72 61.155 164.355 60.8 165.095 60.56C165.835 60.32 166.655 60.2 167.555 60.2ZM181.361 70.175C182.041 70.175 182.691 70.06 183.311 69.83C183.941 69.59 184.541 69.205 185.111 68.675L185.861 69.575C185.291 70.105 184.601 70.525 183.791 70.835C182.981 71.145 182.121 71.3 181.211 71.3C180.271 71.3 179.421 71.18 178.661 70.94C177.911 70.7 177.266 70.345 176.726 69.875C176.196 69.405 175.786 68.825 175.496 68.135C175.206 67.445 175.061 66.65 175.061 65.75C175.061 64.85 175.201 64.055 175.481 63.365C175.771 62.675 176.176 62.095 176.696 61.625C177.226 61.155 177.861 60.8 178.601 60.56C179.341 60.32 180.161 60.2 181.061 60.2C181.971 60.2 182.831 60.355 183.641 60.665C184.451 60.975 185.141 61.395 185.711 61.925L184.961 62.825C184.391 62.295 183.791 61.915 183.161 61.685C182.541 61.445 181.891 61.325 181.211 61.325C180.671 61.325 180.166 61.415 179.696 61.595C179.226 61.765 178.821 62.03 178.481 62.39C178.141 62.75 177.871 63.21 177.671 63.77C177.481 64.32 177.386 64.98 177.386 65.75C177.386 66.52 177.481 67.185 177.671 67.745C177.871 68.295 178.146 68.75 178.496 69.11C178.856 69.47 179.276 69.74 179.756 69.92C180.246 70.09 180.781 70.175 181.361 70.175ZM189.386 71H187.211V60.5H189.386V71ZM194.263 67.325H198.913L196.663 61.775H196.513L194.263 67.325ZM198.313 60.5L202.588 71H200.428L199.438 68.45H193.738L192.748 71H190.588L194.863 60.5H198.313ZM211.967 61.625H207.917V71H205.742V61.625H201.692V60.5H211.967V61.625ZM215.343 71H213.168V60.5H215.343V71ZM223.146 61.25C222.636 61.25 222.156 61.34 221.706 61.52C221.266 61.7 220.881 61.975 220.551 62.345C220.221 62.715 219.956 63.185 219.756 63.755C219.566 64.315 219.471 64.98 219.471 65.75C219.471 66.52 219.566 67.19 219.756 67.76C219.956 68.32 220.221 68.785 220.551 69.155C220.881 69.525 221.266 69.8 221.706 69.98C222.156 70.16 222.636 70.25 223.146 70.25C223.656 70.25 224.131 70.16 224.571 69.98C225.021 69.8 225.411 69.525 225.741 69.155C226.071 68.785 226.331 68.32 226.521 67.76C226.721 67.19 226.821 66.52 226.821 65.75C226.821 64.98 226.721 64.315 226.521 63.755C226.331 63.185 226.071 62.715 225.741 62.345C225.411 61.975 225.021 61.7 224.571 61.52C224.131 61.34 223.656 61.25 223.146 61.25ZM223.146 60.2C224.046 60.2 224.861 60.32 225.591 60.56C226.331 60.8 226.961 61.155 227.481 61.625C228.011 62.095 228.421 62.675 228.711 63.365C229.001 64.055 229.146 64.85 229.146 65.75C229.146 66.65 229.001 67.445 228.711 68.135C228.421 68.825 228.011 69.405 227.481 69.875C226.961 70.345 226.331 70.7 225.591 70.94C224.861 71.18 224.046 71.3 223.146 71.3C222.246 71.3 221.426 71.18 220.686 70.94C219.946 70.7 219.311 70.345 218.781 69.875C218.261 69.405 217.856 68.825 217.566 68.135C217.286 67.445 217.146 66.65 217.146 65.75C217.146 64.85 217.286 64.055 217.566 63.365C217.856 62.675 218.261 62.095 218.781 61.625C219.311 61.155 219.946 60.8 220.686 60.56C221.426 60.32 222.246 60.2 223.146 60.2ZM241.751 60.5V71H238.901L233.276 62.45H233.126V71H230.951V60.5H233.801L239.426 69.05H239.576V60.5H241.751Z" fill="white"/>
<path d="M62.2981 4.29785L63.78 8.65259L68.0903 8.81851L64.6957 11.6799L65.8796 16.1366L62.2981 13.5488L58.7193 16.1366L59.9005 11.6799L56.5059 8.81851L60.8162 8.65259L62.2981 4.29785Z" fill="#FED116"/>
<path d="M62.2981 84.7764L63.78 89.1282L68.0903 89.297L64.6957 92.1556L65.8796 96.6151L62.2981 94.0273L58.7193 96.6151L59.9005 92.1556L56.5059 89.297L60.8162 89.1282L62.2981 84.7764Z" fill="#FED116"/>
<path d="M81.1731 9.59375L82.655 13.9456L86.9653 14.1144L83.5707 16.9729L84.7546 21.4325L81.1731 18.8447L77.5942 21.4325L78.7755 16.9729L75.3809 14.1144L79.6911 13.9456L81.1731 9.59375Z" fill="#FED116"/>
<path d="M81.1731 79.167L82.655 83.5217L86.9653 83.6906L83.5707 86.5491L84.7546 91.0086L81.1731 88.4208L77.5942 91.0086L78.7755 86.5491L75.3809 83.6906L79.6911 83.5217L81.1731 79.167Z" fill="#FED116"/>
<path d="M44.2229 9.59375L45.7048 13.9456L50.0178 14.1144L46.6205 16.9729L47.8044 21.4325L44.2229 18.8447L40.6441 21.4325L41.828 16.9729L38.4307 14.1144L42.7437 13.9456L44.2229 9.59375Z" fill="#FED116"/>
<path d="M44.2229 79.167L45.7048 83.5217L50.0178 83.6906L46.6205 86.5491L47.8044 91.0086L44.2229 88.4208L40.6441 91.0086L41.828 86.5491L38.4307 83.6906L42.7437 83.5217L44.2229 79.167Z" fill="#FED116"/>
<path d="M30.5842 24.5L32.0661 28.8547L36.3791 29.0236L32.9818 31.8821L34.1657 36.3416L30.5842 33.7538L27.0054 36.3416L28.1893 31.8821L24.792 29.0236L29.1023 28.8547L30.5842 24.5Z" fill="#FED116"/>
<path d="M30.5842 64.6885L32.0661 69.0403L36.3791 69.2091L32.9818 72.0677L34.1657 76.5272L30.5842 73.9394L27.0054 76.5272L28.1893 72.0677L24.792 69.2091L29.1023 69.0403L30.5842 64.6885Z" fill="#FED116"/>
<path d="M94.7268 24.5L96.2087 28.8547L100.522 29.0236L97.1244 31.8821L98.3083 36.3416L94.7268 33.7538L91.148 36.3416L92.3319 31.8821L88.9346 29.0236L93.2476 28.8547L94.7268 24.5Z" fill="#FED116"/>
<path d="M94.7268 64.6885L96.2087 69.0403L100.522 69.2091L97.1244 72.0677L98.3083 76.5272L94.7268 73.9394L91.148 76.5272L92.3319 72.0677L88.9346 69.2091L93.2476 69.0403L94.7268 64.6885Z" fill="#FED116"/>
<path d="M99.208 44.4365L100.687 48.7913L105 48.9601L101.603 51.8186L102.787 56.2781L99.208 53.6903L95.6265 56.2781L96.8104 51.8186L93.4131 48.9601L97.7261 48.7913L99.208 44.4365Z" fill="#FED116"/>
<path d="M24.7922 44.4365L26.2741 48.7913L30.5844 48.9601L27.1898 51.8186L28.3737 56.2781L24.7922 53.6903L21.2134 56.2781L22.3946 51.8186L19 48.9601L23.3103 48.7913L24.7922 44.4365Z" fill="#FED116"/>
<path d="M46.124 75.5067C48.462 74.0425 50.1797 72.5579 51.3473 71.4314C60.7265 62.3784 64.3026 47.6841 61.1166 35.6562C60.6425 33.8689 60.1034 32.4513 59.7322 31.5547C60.1088 31.9797 60.7807 32.7773 61.4688 33.8689C68.7456 45.3874 63.6659 66.7972 51.22 73.6088C49.2531 74.6858 47.4298 75.2185 46.124 75.5038V75.5067Z" fill="white"/>
<path d="M63.5879 58.2018C64.463 57.9514 65.9936 57.3955 67.378 56.0623C73.6471 50.025 67.5812 37.0685 73.3165 31.1273C74.4788 29.9222 76.6759 28.4405 81.0891 28.4813C80.0922 28.6792 78.1632 29.2207 76.5946 30.9468C75.2996 32.3703 74.7795 34.0208 74.4652 35.4762C72.7639 43.3706 76.7762 47.2829 74.5004 52.4789C72.8208 56.3126 69.0685 57.7622 68.7814 57.867C66.6005 58.6704 64.6445 58.4259 63.5879 58.2018Z" fill="white"/>
<path d="M59.6051 53.9841C54.5877 54.3829 52.4394 52.9391 51.3936 51.6292C47.5926 46.8611 53.0354 37.095 48.866 33.0488C47.804 32.0183 46.5009 31.7301 45.7314 31.6312C48.6872 31.311 50.3154 32.1202 51.2636 32.9585C55.6958 36.8679 51.4532 46.7942 56.625 52.0455C57.6789 53.1138 58.814 53.6785 59.6051 53.987V53.9841Z" fill="white"/>
</svg>
