<svg width="152" height="151" viewBox="0 0 152 151" fill="none" xmlns="http://www.w3.org/2000/svg">
<path d="M30.8412 98.625V102.075H36.3162V103.2H30.8412V106.875H37.8162V108H28.6662V97.5H37.8162V98.625H30.8412ZM44.7156 107.25C45.2056 107.25 45.6456 107.185 46.0356 107.055C46.4356 106.915 46.7756 106.705 47.0556 106.425C47.3356 106.135 47.5506 105.77 47.7006 105.33C47.8606 104.88 47.9406 104.345 47.9406 103.725V97.5H50.1156V103.725C50.1156 105.265 49.6456 106.415 48.7056 107.175C47.7656 107.925 46.4356 108.3 44.7156 108.3C42.9856 108.3 41.6506 107.925 40.7106 107.175C39.7806 106.415 39.3156 105.265 39.3156 103.725V97.5H41.4906V103.725C41.4906 104.345 41.5656 104.88 41.7156 105.33C41.8756 105.77 42.0956 106.135 42.3756 106.425C42.6556 106.705 42.9906 106.915 43.3806 107.055C43.7806 107.185 44.2256 107.25 44.7156 107.25ZM57.6209 97.5C58.3709 97.5 59.0409 97.585 59.6309 97.755C60.2309 97.915 60.7359 98.155 61.1459 98.475C61.5559 98.785 61.8709 99.17 62.0909 99.63C62.3109 100.08 62.4209 100.595 62.4209 101.175C62.4209 101.975 62.2209 102.65 61.8209 103.2C61.4209 103.75 60.8459 104.17 60.0959 104.46L62.5709 108H60.0959L57.8909 104.85H57.6209H54.3959V108H52.2209V97.5H57.6209ZM54.3959 98.625V103.725H57.6209C58.4109 103.725 59.0209 103.52 59.4509 103.11C59.8809 102.69 60.0959 102.045 60.0959 101.175C60.0959 100.305 59.8809 99.665 59.4509 99.255C59.0209 98.835 58.4109 98.625 57.6209 98.625H54.3959ZM69.918 98.25C69.408 98.25 68.928 98.34 68.478 98.52C68.038 98.7 67.653 98.975 67.323 99.345C66.993 99.715 66.728 100.185 66.528 100.755C66.338 101.315 66.243 101.98 66.243 102.75C66.243 103.52 66.338 104.19 66.528 104.76C66.728 105.32 66.993 105.785 67.323 106.155C67.653 106.525 68.038 106.8 68.478 106.98C68.928 107.16 69.408 107.25 69.918 107.25C70.428 107.25 70.903 107.16 71.343 106.98C71.793 106.8 72.183 106.525 72.513 106.155C72.843 105.785 73.103 105.32 73.293 104.76C73.493 104.19 73.593 103.52 73.593 102.75C73.593 101.98 73.493 101.315 73.293 100.755C73.103 100.185 72.843 99.715 72.513 99.345C72.183 98.975 71.793 98.7 71.343 98.52C70.903 98.34 70.428 98.25 69.918 98.25ZM69.918 97.2C70.818 97.2 71.633 97.32 72.363 97.56C73.103 97.8 73.733 98.155 74.253 98.625C74.783 99.095 75.193 99.675 75.483 100.365C75.773 101.055 75.918 101.85 75.918 102.75C75.918 103.65 75.773 104.445 75.483 105.135C75.193 105.825 74.783 106.405 74.253 106.875C73.733 107.345 73.103 107.7 72.363 107.94C71.633 108.18 70.818 108.3 69.918 108.3C69.018 108.3 68.198 108.18 67.458 107.94C66.718 107.7 66.083 107.345 65.553 106.875C65.033 106.405 64.628 105.825 64.338 105.135C64.058 104.445 63.918 103.65 63.918 102.75C63.918 101.85 64.058 101.055 64.338 100.365C64.628 99.675 65.033 99.095 65.553 98.625C66.083 98.155 66.718 97.8 67.458 97.56C68.198 97.32 69.018 97.2 69.918 97.2ZM83.1238 97.5C83.8738 97.5 84.5438 97.585 85.1338 97.755C85.7338 97.915 86.2388 98.155 86.6488 98.475C87.0588 98.785 87.3738 99.17 87.5938 99.63C87.8138 100.08 87.9238 100.595 87.9238 101.175C87.9238 101.755 87.8138 102.275 87.5938 102.735C87.3738 103.185 87.0588 103.57 86.6488 103.89C86.2388 104.2 85.7338 104.44 85.1338 104.61C84.5438 104.77 83.8738 104.85 83.1238 104.85H79.8988V108H77.7238V97.5H83.1238ZM79.8988 98.625V103.725H83.1238C83.9138 103.725 84.5238 103.52 84.9538 103.11C85.3938 102.69 85.6138 102.045 85.6138 101.175C85.6138 100.305 85.3938 99.665 84.9538 99.255C84.5238 98.835 83.9138 98.625 83.1238 98.625H79.8988ZM91.7494 98.625V102.075H97.2244V103.2H91.7494V106.875H98.7244V108H89.5744V97.5H98.7244V98.625H91.7494ZM102.999 104.325H107.649L105.399 98.775H105.249L102.999 104.325ZM107.049 97.5L111.324 108H109.164L108.174 105.45H102.474L101.484 108H99.3238L103.599 97.5H107.049ZM123.329 97.5V108H120.479L114.854 99.45H114.704V108H112.529V97.5H115.379L121.004 106.05H121.154V97.5H123.329ZM9.9915 116.5C10.7415 116.5 11.4115 116.585 12.0015 116.755C12.6015 116.915 13.1065 117.155 13.5165 117.475C13.9265 117.785 14.2415 118.17 14.4615 118.63C14.6815 119.08 14.7915 119.595 14.7915 120.175C14.7915 120.755 14.6815 121.275 14.4615 121.735C14.2415 122.185 13.9265 122.57 13.5165 122.89C13.1065 123.2 12.6015 123.44 12.0015 123.61C11.4115 123.77 10.7415 123.85 9.9915 123.85H6.7665V127H4.5915V116.5H9.9915ZM6.7665 117.625V122.725H9.9915C10.7815 122.725 11.3915 122.52 11.8215 122.11C12.2615 121.69 12.4815 121.045 12.4815 120.175C12.4815 119.305 12.2615 118.665 11.8215 118.255C11.3915 117.835 10.7815 117.625 9.9915 117.625H6.7665ZM26.1921 124.225C26.1921 124.655 26.1021 125.06 25.9221 125.44C25.7421 125.81 25.4471 126.135 25.0371 126.415C24.6371 126.685 24.1121 126.9 23.4621 127.06C22.8221 127.22 22.0321 127.3 21.0921 127.3C20.5621 127.3 20.0421 127.26 19.5321 127.18C19.0321 127.1 18.5521 126.985 18.0921 126.835C17.6421 126.685 17.2221 126.505 16.8321 126.295C16.4521 126.075 16.1221 125.835 15.8421 125.575L16.5921 124.675C17.1621 125.165 17.8271 125.54 18.5871 125.8C19.3471 126.05 20.1821 126.175 21.0921 126.175C22.1021 126.175 22.8171 126.035 23.2371 125.755C23.6571 125.475 23.8671 125.09 23.8671 124.6C23.8671 124.22 23.7021 123.9 23.3721 123.64C23.0421 123.38 22.4821 123.125 21.6921 122.875L18.8421 121.975C17.9021 121.675 17.1921 121.295 16.7121 120.835C16.2321 120.365 15.9921 119.77 15.9921 119.05C15.9921 118.68 16.0771 118.325 16.2471 117.985C16.4271 117.635 16.7021 117.33 17.0721 117.07C17.4421 116.8 17.9121 116.59 18.4821 116.44C19.0621 116.28 19.7571 116.2 20.5671 116.2C21.0571 116.2 21.5421 116.24 22.0221 116.32C22.5121 116.4 22.9771 116.515 23.4171 116.665C23.8671 116.815 24.2821 117 24.6621 117.22C25.0521 117.43 25.3871 117.665 25.6671 117.925L24.9171 118.825C24.3471 118.335 23.7071 117.965 22.9971 117.715C22.2871 117.455 21.4771 117.325 20.5671 117.325C19.8171 117.325 19.2521 117.455 18.8721 117.715C18.5021 117.975 18.3171 118.295 18.3171 118.675C18.3171 118.885 18.3521 119.07 18.4221 119.23C18.4921 119.38 18.6071 119.525 18.7671 119.665C18.9371 119.795 19.1571 119.92 19.4271 120.04C19.6971 120.15 20.0321 120.27 20.4321 120.4L23.2671 121.3C24.1771 121.59 24.8921 121.97 25.4121 122.44C25.9321 122.91 26.1921 123.505 26.1921 124.225ZM33.238 123.85V127H31.063V123.85L26.188 116.5H28.588L32.113 121.825H32.188L35.713 116.5H38.113L33.238 123.85ZM44.4147 126.175C45.0947 126.175 45.7447 126.06 46.3647 125.83C46.9947 125.59 47.5947 125.205 48.1647 124.675L48.9147 125.575C48.3447 126.105 47.6547 126.525 46.8447 126.835C46.0347 127.145 45.1747 127.3 44.2647 127.3C43.3247 127.3 42.4747 127.18 41.7147 126.94C40.9647 126.7 40.3197 126.345 39.7797 125.875C39.2497 125.405 38.8397 124.825 38.5497 124.135C38.2597 123.445 38.1147 122.65 38.1147 121.75C38.1147 120.85 38.2547 120.055 38.5347 119.365C38.8247 118.675 39.2297 118.095 39.7497 117.625C40.2797 117.155 40.9147 116.8 41.6547 116.56C42.3947 116.32 43.2147 116.2 44.1147 116.2C45.0247 116.2 45.8847 116.355 46.6947 116.665C47.5047 116.975 48.1947 117.395 48.7647 117.925L48.0147 118.825C47.4447 118.295 46.8447 117.915 46.2147 117.685C45.5947 117.445 44.9447 117.325 44.2647 117.325C43.7247 117.325 43.2197 117.415 42.7497 117.595C42.2797 117.765 41.8747 118.03 41.5347 118.39C41.1947 118.75 40.9247 119.21 40.7247 119.77C40.5347 120.32 40.4397 120.98 40.4397 121.75C40.4397 122.52 40.5347 123.185 40.7247 123.745C40.9247 124.295 41.1997 124.75 41.5497 125.11C41.9097 125.47 42.3297 125.74 42.8097 125.92C43.2997 126.09 43.8347 126.175 44.4147 126.175ZM60.7653 116.5V127H58.5903V122.425H52.4403V127H50.2653V116.5H52.4403V121.3H58.5903V116.5H60.7653ZM68.563 117.25C68.053 117.25 67.573 117.34 67.123 117.52C66.683 117.7 66.298 117.975 65.968 118.345C65.638 118.715 65.373 119.185 65.173 119.755C64.983 120.315 64.888 120.98 64.888 121.75C64.888 122.52 64.983 123.19 65.173 123.76C65.373 124.32 65.638 124.785 65.968 125.155C66.298 125.525 66.683 125.8 67.123 125.98C67.573 126.16 68.053 126.25 68.563 126.25C69.073 126.25 69.548 126.16 69.988 125.98C70.438 125.8 70.828 125.525 71.158 125.155C71.488 124.785 71.748 124.32 71.938 123.76C72.138 123.19 72.238 122.52 72.238 121.75C72.238 120.98 72.138 120.315 71.938 119.755C71.748 119.185 71.488 118.715 71.158 118.345C70.828 117.975 70.438 117.7 69.988 117.52C69.548 117.34 69.073 117.25 68.563 117.25ZM68.563 116.2C69.463 116.2 70.278 116.32 71.008 116.56C71.748 116.8 72.378 117.155 72.898 117.625C73.428 118.095 73.838 118.675 74.128 119.365C74.418 120.055 74.563 120.85 74.563 121.75C74.563 122.65 74.418 123.445 74.128 124.135C73.838 124.825 73.428 125.405 72.898 125.875C72.378 126.345 71.748 126.7 71.008 126.94C70.278 127.18 69.463 127.3 68.563 127.3C67.663 127.3 66.843 127.18 66.103 126.94C65.363 126.7 64.728 126.345 64.198 125.875C63.678 125.405 63.273 124.825 62.983 124.135C62.703 123.445 62.563 122.65 62.563 121.75C62.563 120.85 62.703 120.055 62.983 119.365C63.273 118.675 63.678 118.095 64.198 117.625C64.728 117.155 65.363 116.8 66.103 116.56C66.843 116.32 67.663 116.2 68.563 116.2ZM84.9938 125.875V127H76.3688V116.5H78.5438V125.875H84.9938ZM90.9897 117.25C90.4797 117.25 89.9997 117.34 89.5497 117.52C89.1097 117.7 88.7247 117.975 88.3947 118.345C88.0647 118.715 87.7997 119.185 87.5997 119.755C87.4097 120.315 87.3147 120.98 87.3147 121.75C87.3147 122.52 87.4097 123.19 87.5997 123.76C87.7997 124.32 88.0647 124.785 88.3947 125.155C88.7247 125.525 89.1097 125.8 89.5497 125.98C89.9997 126.16 90.4797 126.25 90.9897 126.25C91.4997 126.25 91.9747 126.16 92.4147 125.98C92.8647 125.8 93.2547 125.525 93.5847 125.155C93.9147 124.785 94.1747 124.32 94.3647 123.76C94.5647 123.19 94.6647 122.52 94.6647 121.75C94.6647 120.98 94.5647 120.315 94.3647 119.755C94.1747 119.185 93.9147 118.715 93.5847 118.345C93.2547 117.975 92.8647 117.7 92.4147 117.52C91.9747 117.34 91.4997 117.25 90.9897 117.25ZM90.9897 116.2C91.8897 116.2 92.7047 116.32 93.4347 116.56C94.1747 116.8 94.8047 117.155 95.3247 117.625C95.8547 118.095 96.2647 118.675 96.5547 119.365C96.8447 120.055 96.9897 120.85 96.9897 121.75C96.9897 122.65 96.8447 123.445 96.5547 124.135C96.2647 124.825 95.8547 125.405 95.3247 125.875C94.8047 126.345 94.1747 126.7 93.4347 126.94C92.7047 127.18 91.8897 127.3 90.9897 127.3C90.0897 127.3 89.2697 127.18 88.5297 126.94C87.7897 126.7 87.1547 126.345 86.6247 125.875C86.1047 125.405 85.6997 124.825 85.4097 124.135C85.1297 123.445 84.9897 122.65 84.9897 121.75C84.9897 120.85 85.1297 120.055 85.4097 119.365C85.6997 118.675 86.1047 118.095 86.6247 117.625C87.1547 117.155 87.7897 116.8 88.5297 116.56C89.2697 116.32 90.0897 116.2 90.9897 116.2ZM104.196 116.2C105.106 116.2 105.966 116.355 106.776 116.665C107.586 116.975 108.276 117.395 108.846 117.925L108.096 118.825C107.526 118.295 106.926 117.915 106.296 117.685C105.676 117.445 105.026 117.325 104.346 117.325C103.836 117.325 103.366 117.415 102.936 117.595C102.506 117.765 102.131 118.03 101.811 118.39C101.501 118.75 101.256 119.21 101.076 119.77C100.906 120.32 100.821 120.98 100.821 121.75C100.821 122.54 100.911 123.22 101.091 123.79C101.271 124.35 101.521 124.815 101.841 125.185C102.161 125.545 102.546 125.815 102.996 125.995C103.456 126.165 103.956 126.25 104.496 126.25C104.946 126.25 105.331 126.21 105.651 126.13C105.981 126.05 106.256 125.955 106.476 125.845C106.736 125.725 106.951 125.585 107.121 125.425V122.575H105.171V121.6H109.296V125.725C108.926 126.025 108.496 126.29 108.006 126.52C107.586 126.72 107.066 126.9 106.446 127.06C105.836 127.22 105.136 127.3 104.346 127.3C103.446 127.3 102.636 127.18 101.916 126.94C101.196 126.7 100.581 126.345 100.071 125.875C99.5606 125.405 99.1706 124.825 98.9006 124.135C98.6306 123.445 98.4956 122.65 98.4956 121.75C98.4956 120.85 98.6306 120.055 98.9006 119.365C99.1706 118.675 99.5506 118.095 100.041 117.625C100.541 117.155 101.141 116.8 101.841 116.56C102.551 116.32 103.336 116.2 104.196 116.2ZM113.275 127H111.1V116.5H113.275V127ZM121.378 126.175C122.058 126.175 122.708 126.06 123.328 125.83C123.958 125.59 124.558 125.205 125.128 124.675L125.878 125.575C125.308 126.105 124.618 126.525 123.808 126.835C122.998 127.145 122.138 127.3 121.228 127.3C120.288 127.3 119.438 127.18 118.678 126.94C117.928 126.7 117.283 126.345 116.743 125.875C116.213 125.405 115.803 124.825 115.513 124.135C115.223 123.445 115.078 122.65 115.078 121.75C115.078 120.85 115.218 120.055 115.498 119.365C115.788 118.675 116.193 118.095 116.713 117.625C117.243 117.155 117.878 116.8 118.618 116.56C119.358 116.32 120.178 116.2 121.078 116.2C121.988 116.2 122.848 116.355 123.658 116.665C124.468 116.975 125.158 117.395 125.728 117.925L124.978 118.825C124.408 118.295 123.808 117.915 123.178 117.685C122.558 117.445 121.908 117.325 121.228 117.325C120.688 117.325 120.183 117.415 119.713 117.595C119.243 117.765 118.838 118.03 118.498 118.39C118.158 118.75 117.888 119.21 117.688 119.77C117.498 120.32 117.403 120.98 117.403 121.75C117.403 122.52 117.498 123.185 117.688 123.745C117.888 124.295 118.163 124.75 118.513 125.11C118.873 125.47 119.293 125.74 119.773 125.92C120.263 126.09 120.798 126.175 121.378 126.175ZM130.003 123.325H134.653L132.403 117.775H132.253L130.003 123.325ZM134.053 116.5L138.328 127H136.168L135.178 124.45H129.478L128.488 127H126.328L130.603 116.5H134.053ZM148.158 125.875V127H139.533V116.5H141.708V125.875H148.158ZM21.4217 142.325H26.0717L23.8217 136.775H23.6717L21.4217 142.325ZM25.4717 135.5L29.7467 146H27.5867L26.5967 143.45H20.8967L19.9067 146H17.7467L22.0217 135.5H25.4717ZM40.7014 143.225C40.7014 143.655 40.6114 144.06 40.4314 144.44C40.2514 144.81 39.9564 145.135 39.5464 145.415C39.1464 145.685 38.6214 145.9 37.9714 146.06C37.3314 146.22 36.5414 146.3 35.6014 146.3C35.0714 146.3 34.5514 146.26 34.0414 146.18C33.5414 146.1 33.0614 145.985 32.6014 145.835C32.1514 145.685 31.7314 145.505 31.3414 145.295C30.9614 145.075 30.6314 144.835 30.3514 144.575L31.1014 143.675C31.6714 144.165 32.3364 144.54 33.0964 144.8C33.8564 145.05 34.6914 145.175 35.6014 145.175C36.6114 145.175 37.3264 145.035 37.7464 144.755C38.1664 144.475 38.3764 144.09 38.3764 143.6C38.3764 143.22 38.2114 142.9 37.8814 142.64C37.5514 142.38 36.9914 142.125 36.2014 141.875L33.3514 140.975C32.4114 140.675 31.7014 140.295 31.2214 139.835C30.7414 139.365 30.5014 138.77 30.5014 138.05C30.5014 137.68 30.5864 137.325 30.7564 136.985C30.9364 136.635 31.2114 136.33 31.5814 136.07C31.9514 135.8 32.4214 135.59 32.9914 135.44C33.5714 135.28 34.2664 135.2 35.0764 135.2C35.5664 135.2 36.0514 135.24 36.5314 135.32C37.0214 135.4 37.4864 135.515 37.9264 135.665C38.3764 135.815 38.7914 136 39.1714 136.22C39.5614 136.43 39.8964 136.665 40.1764 136.925L39.4264 137.825C38.8564 137.335 38.2164 136.965 37.5064 136.715C36.7964 136.455 35.9864 136.325 35.0764 136.325C34.3264 136.325 33.7614 136.455 33.3814 136.715C33.0114 136.975 32.8264 137.295 32.8264 137.675C32.8264 137.885 32.8614 138.07 32.9314 138.23C33.0014 138.38 33.1164 138.525 33.2764 138.665C33.4464 138.795 33.6664 138.92 33.9364 139.04C34.2064 139.15 34.5414 139.27 34.9414 139.4L37.7764 140.3C38.6864 140.59 39.4014 140.97 39.9214 141.44C40.4414 141.91 40.7014 142.505 40.7014 143.225ZM51.9514 143.225C51.9514 143.655 51.8614 144.06 51.6814 144.44C51.5014 144.81 51.2064 145.135 50.7964 145.415C50.3964 145.685 49.8714 145.9 49.2214 146.06C48.5814 146.22 47.7914 146.3 46.8514 146.3C46.3214 146.3 45.8014 146.26 45.2914 146.18C44.7914 146.1 44.3114 145.985 43.8514 145.835C43.4014 145.685 42.9814 145.505 42.5914 145.295C42.2114 145.075 41.8814 144.835 41.6014 144.575L42.3514 143.675C42.9214 144.165 43.5864 144.54 44.3464 144.8C45.1064 145.05 45.9414 145.175 46.8514 145.175C47.8614 145.175 48.5764 145.035 48.9964 144.755C49.4164 144.475 49.6264 144.09 49.6264 143.6C49.6264 143.22 49.4614 142.9 49.1314 142.64C48.8014 142.38 48.2414 142.125 47.4514 141.875L44.6014 140.975C43.6614 140.675 42.9514 140.295 42.4714 139.835C41.9914 139.365 41.7514 138.77 41.7514 138.05C41.7514 137.68 41.8364 137.325 42.0064 136.985C42.1864 136.635 42.4614 136.33 42.8314 136.07C43.2014 135.8 43.6714 135.59 44.2414 135.44C44.8214 135.28 45.5164 135.2 46.3264 135.2C46.8164 135.2 47.3014 135.24 47.7814 135.32C48.2714 135.4 48.7364 135.515 49.1764 135.665C49.6264 135.815 50.0414 136 50.4214 136.22C50.8114 136.43 51.1464 136.665 51.4264 136.925L50.6764 137.825C50.1064 137.335 49.4664 136.965 48.7564 136.715C48.0464 136.455 47.2364 136.325 46.3264 136.325C45.5764 136.325 45.0114 136.455 44.6314 136.715C44.2614 136.975 44.0764 137.295 44.0764 137.675C44.0764 137.885 44.1114 138.07 44.1814 138.23C44.2514 138.38 44.3664 138.525 44.5264 138.665C44.6964 138.795 44.9164 138.92 45.1864 139.04C45.4564 139.15 45.7914 139.27 46.1914 139.4L49.0264 140.3C49.9364 140.59 50.6514 140.97 51.1714 141.44C51.6914 141.91 51.9514 142.505 51.9514 143.225ZM59.1514 136.25C58.6414 136.25 58.1614 136.34 57.7114 136.52C57.2714 136.7 56.8864 136.975 56.5564 137.345C56.2264 137.715 55.9614 138.185 55.7614 138.755C55.5714 139.315 55.4764 139.98 55.4764 140.75C55.4764 141.52 55.5714 142.19 55.7614 142.76C55.9614 143.32 56.2264 143.785 56.5564 144.155C56.8864 144.525 57.2714 144.8 57.7114 144.98C58.1614 145.16 58.6414 145.25 59.1514 145.25C59.6614 145.25 60.1364 145.16 60.5764 144.98C61.0264 144.8 61.4164 144.525 61.7464 144.155C62.0764 143.785 62.3364 143.32 62.5264 142.76C62.7264 142.19 62.8264 141.52 62.8264 140.75C62.8264 139.98 62.7264 139.315 62.5264 138.755C62.3364 138.185 62.0764 137.715 61.7464 137.345C61.4164 136.975 61.0264 136.7 60.5764 136.52C60.1364 136.34 59.6614 136.25 59.1514 136.25ZM59.1514 135.2C60.0514 135.2 60.8664 135.32 61.5964 135.56C62.3364 135.8 62.9664 136.155 63.4864 136.625C64.0164 137.095 64.4264 137.675 64.7164 138.365C65.0064 139.055 65.1514 139.85 65.1514 140.75C65.1514 141.65 65.0064 142.445 64.7164 143.135C64.4264 143.825 64.0164 144.405 63.4864 144.875C62.9664 145.345 62.3364 145.7 61.5964 145.94C60.8664 146.18 60.0514 146.3 59.1514 146.3C58.2514 146.3 57.4314 146.18 56.6914 145.94C55.9514 145.7 55.3164 145.345 54.7864 144.875C54.2664 144.405 53.8614 143.825 53.5714 143.135C53.2914 142.445 53.1514 141.65 53.1514 140.75C53.1514 139.85 53.2914 139.055 53.5714 138.365C53.8614 137.675 54.2664 137.095 54.7864 136.625C55.3164 136.155 55.9514 135.8 56.6914 135.56C57.4314 135.32 58.2514 135.2 59.1514 135.2ZM72.9572 145.175C73.6372 145.175 74.2872 145.06 74.9072 144.83C75.5372 144.59 76.1372 144.205 76.7072 143.675L77.4572 144.575C76.8872 145.105 76.1972 145.525 75.3872 145.835C74.5772 146.145 73.7172 146.3 72.8072 146.3C71.8672 146.3 71.0172 146.18 70.2572 145.94C69.5072 145.7 68.8622 145.345 68.3222 144.875C67.7922 144.405 67.3822 143.825 67.0922 143.135C66.8022 142.445 66.6572 141.65 66.6572 140.75C66.6572 139.85 66.7972 139.055 67.0772 138.365C67.3672 137.675 67.7722 137.095 68.2922 136.625C68.8222 136.155 69.4572 135.8 70.1972 135.56C70.9372 135.32 71.7572 135.2 72.6572 135.2C73.5672 135.2 74.4272 135.355 75.2372 135.665C76.0472 135.975 76.7372 136.395 77.3072 136.925L76.5572 137.825C75.9872 137.295 75.3872 136.915 74.7572 136.685C74.1372 136.445 73.4872 136.325 72.8072 136.325C72.2672 136.325 71.7622 136.415 71.2922 136.595C70.8222 136.765 70.4172 137.03 70.0772 137.39C69.7372 137.75 69.4672 138.21 69.2672 138.77C69.0772 139.32 68.9822 139.98 68.9822 140.75C68.9822 141.52 69.0772 142.185 69.2672 142.745C69.4672 143.295 69.7422 143.75 70.0922 144.11C70.4522 144.47 70.8722 144.74 71.3522 144.92C71.8422 145.09 72.3772 145.175 72.9572 145.175ZM80.9828 146H78.8078V135.5H80.9828V146ZM85.8602 142.325H90.5102L88.2602 136.775H88.1102L85.8602 142.325ZM89.9102 135.5L94.1852 146H92.0252L91.0352 143.45H85.3352L84.3452 146H82.1852L86.4602 135.5H89.9102ZM103.564 136.625H99.5137V146H97.3387V136.625H93.2887V135.5H103.564V136.625ZM106.94 146H104.765V135.5H106.94V146ZM114.742 136.25C114.232 136.25 113.752 136.34 113.302 136.52C112.862 136.7 112.477 136.975 112.147 137.345C111.817 137.715 111.552 138.185 111.352 138.755C111.162 139.315 111.067 139.98 111.067 140.75C111.067 141.52 111.162 142.19 111.352 142.76C111.552 143.32 111.817 143.785 112.147 144.155C112.477 144.525 112.862 144.8 113.302 144.98C113.752 145.16 114.232 145.25 114.742 145.25C115.252 145.25 115.727 145.16 116.167 144.98C116.617 144.8 117.007 144.525 117.337 144.155C117.667 143.785 117.927 143.32 118.117 142.76C118.317 142.19 118.417 141.52 118.417 140.75C118.417 139.98 118.317 139.315 118.117 138.755C117.927 138.185 117.667 137.715 117.337 137.345C117.007 136.975 116.617 136.7 116.167 136.52C115.727 136.34 115.252 136.25 114.742 136.25ZM114.742 135.2C115.642 135.2 116.457 135.32 117.187 135.56C117.927 135.8 118.557 136.155 119.077 136.625C119.607 137.095 120.017 137.675 120.307 138.365C120.597 139.055 120.742 139.85 120.742 140.75C120.742 141.65 120.597 142.445 120.307 143.135C120.017 143.825 119.607 144.405 119.077 144.875C118.557 145.345 117.927 145.7 117.187 145.94C116.457 146.18 115.642 146.3 114.742 146.3C113.842 146.3 113.022 146.18 112.282 145.94C111.542 145.7 110.907 145.345 110.377 144.875C109.857 144.405 109.452 143.825 109.162 143.135C108.882 142.445 108.742 141.65 108.742 140.75C108.742 139.85 108.882 139.055 109.162 138.365C109.452 137.675 109.857 137.095 110.377 136.625C110.907 136.155 111.542 135.8 112.282 135.56C113.022 135.32 113.842 135.2 114.742 135.2ZM133.348 135.5V146H130.498L124.873 137.45H124.723V146H122.548V135.5H125.398L131.023 144.05H131.173V135.5H133.348Z" fill="white"/>
<path d="M76.2981 0L77.78 4.05292L82.0903 4.20735L78.6957 6.87046L79.8796 11.0182L76.2981 8.60975L72.7193 11.0182L73.9005 6.87046L70.5059 4.20735L74.8162 4.05292L76.2981 0Z" fill="#FED116"/>
<path d="M76.2981 74.9004L77.78 78.9506L82.0903 79.1077L78.6957 81.7681L79.8796 85.9186L76.2981 83.5101L72.7193 85.9186L73.9005 81.7681L70.5059 79.1077L74.8162 78.9506L76.2981 74.9004Z" fill="#FED116"/>
<path d="M95.1731 4.92871L96.655 8.97892L100.965 9.13606L97.5707 11.7965L98.7546 15.9469L95.1731 13.5385L91.5942 15.9469L92.7755 11.7965L89.3809 9.13606L93.6911 8.97892L95.1731 4.92871Z" fill="#FED116"/>
<path d="M95.1731 69.6797L96.655 73.7326L100.965 73.8897L97.5707 76.5501L98.7546 80.7006L95.1731 78.2922L91.5942 80.7006L92.7755 76.5501L89.3809 73.8897L93.6911 73.7326L95.1731 69.6797Z" fill="#FED116"/>
<path d="M58.2229 4.92871L59.7048 8.97892L64.0178 9.13606L60.6205 11.7965L61.8044 15.9469L58.2229 13.5385L54.6441 15.9469L55.828 11.7965L52.4307 9.13606L56.7437 8.97892L58.2229 4.92871Z" fill="#FED116"/>
<path d="M58.2229 69.6797L59.7048 73.7326L64.0178 73.8897L60.6205 76.5501L61.8044 80.7006L58.2229 78.2922L54.6441 80.7006L55.828 76.5501L52.4307 73.8897L56.7437 73.7326L58.2229 69.6797Z" fill="#FED116"/>
<path d="M44.5842 18.8018L46.0661 22.8547L50.3791 23.0118L46.9818 25.6722L48.1657 29.8227L44.5842 27.4142L41.0054 29.8227L42.1893 25.6722L38.792 23.0118L43.1023 22.8547L44.5842 18.8018Z" fill="#FED116"/>
<path d="M44.5842 56.2051L46.0661 60.2553L50.3791 60.4124L46.9818 63.0728L48.1657 67.2233L44.5842 64.8148L41.0054 67.2233L42.1893 63.0728L38.792 60.4124L43.1023 60.2553L44.5842 56.2051Z" fill="#FED116"/>
<path d="M108.727 18.8018L110.209 22.8547L114.522 23.0118L111.124 25.6722L112.308 29.8227L108.727 27.4142L105.148 29.8227L106.332 25.6722L102.935 23.0118L107.248 22.8547L108.727 18.8018Z" fill="#FED116"/>
<path d="M108.727 56.2051L110.209 60.2553L114.522 60.4124L111.124 63.0728L112.308 67.2233L108.727 64.8148L105.148 67.2233L106.332 63.0728L102.935 60.4124L107.248 60.2553L108.727 56.2051Z" fill="#FED116"/>
<path d="M113.208 37.3564L114.687 41.4094L119 41.5665L115.603 44.2269L116.787 48.3774L113.208 45.9689L109.626 48.3774L110.81 44.2269L107.413 41.5665L111.726 41.4094L113.208 37.3564Z" fill="#FED116"/>
<path d="M38.7922 37.3564L40.2741 41.4094L44.5844 41.5665L41.1898 44.2269L42.3737 48.3774L38.7922 45.9689L35.2134 48.3774L36.3946 44.2269L33 41.5665L37.3103 41.4094L38.7922 37.3564Z" fill="#FED116"/>
<path d="M60.124 66.274C62.462 64.9113 64.1797 63.5296 65.3473 62.4811C74.7265 54.0556 78.3026 40.3797 75.1166 29.1854C74.6425 27.522 74.1034 26.2026 73.7322 25.3682C74.1088 25.7637 74.7807 26.506 75.4688 27.522C82.7456 38.2422 77.6659 58.1681 65.22 64.5076C63.2531 65.51 61.4298 66.0058 60.124 66.2713V66.274Z" fill="white"/>
<path d="M77.5879 50.1683C78.463 49.9353 79.9936 49.4178 81.378 48.177C87.6471 42.5582 81.5812 30.4997 87.3165 24.9702C88.4788 23.8486 90.6759 22.4697 95.0891 22.5076C94.0922 22.6918 92.1632 23.1957 90.5946 24.8023C89.2996 26.1271 88.7795 27.6632 88.4652 29.0177C86.7639 36.365 90.7762 40.0062 88.5004 44.842C86.8208 48.41 83.0685 49.7592 82.7814 49.8567C80.6005 50.6044 78.6445 50.3769 77.5879 50.1683Z" fill="white"/>
<path d="M73.6051 46.2424C68.5877 46.6136 66.4394 45.2699 65.3936 44.0507C61.5926 39.6131 67.0354 30.5238 62.866 26.7581C61.804 25.799 60.5009 25.5308 59.7314 25.4387C62.6872 25.1407 64.3154 25.8938 65.2636 26.6741C69.6958 30.3125 65.4532 39.5508 70.625 44.4381C71.6789 45.4324 72.814 45.958 73.6051 46.2452V46.2424Z" fill="white"/>
</svg>
